<?xml version="1.0" encoding="UTF-8"?>
<svg xmlns="http://www.w3.org/2000/svg" xmlns:xlink="http://www.w3.org/1999/xlink" width="288px" height="252px" viewBox="0 0 288 252" version="1.1" id="Fig:dens">
  <metadata xmlns:gridsvg="http://www.stat.auckland.ac.nz/~paul/R/gridSVG/">
    <gridsvg:generator name="gridSVG" version="1.7-0" time="2019-06-17 22:09:09"/>
    <gridsvg:argument name="name" value="QualityControl/dens.svg"/>
    <gridsvg:argument name="exportCoords" value="none"/>
    <gridsvg:argument name="exportMappings" value="none"/>
    <gridsvg:argument name="exportJS" value="none"/>
    <gridsvg:argument name="res" value="72"/>
    <gridsvg:argument name="prefix" value="Fig:dens"/>
    <gridsvg:argument name="addClasses" value="FALSE"/>
    <gridsvg:argument name="indent" value="TRUE"/>
    <gridsvg:argument name="htmlWrapper" value="FALSE"/>
    <gridsvg:argument name="usePaths" value="none"/>
    <gridsvg:argument name="uniqueNames" value="TRUE"/>
    <gridsvg:separator name="id.sep" value="."/>
    <gridsvg:separator name="gPath.sep" value="::"/>
    <gridsvg:separator name="vpPath.sep" value="::"/>
  </metadata>
  <g transform="translate(0, 252) scale(1, -1)">
    <g id="Fig:densgridSVG" fill="none" stroke="rgb(0,0,0)" stroke-dasharray="none" stroke-width="0.75" font-size="12" font-family="Helvetica, Arial, FreeSans, Liberation Sans, Nimbus Sans L, sans-serif" opacity="1" stroke-linecap="round" stroke-linejoin="round" stroke-miterlimit="10" stroke-opacity="1" fill-opacity="0" font-weight="normal" font-style="normal">
      <g id="Fig:densplot_01.background.1">
        <rect id="Fig:densplot_01.background.1.1" x="0" y="0" width="288" height="252" transform="" fill="none" stroke="none" stroke-opacity="0" fill-opacity="0"/>
      </g>
      <g id="Fig:densplot_01.toplevel.vp.1" font-size="12">
        <g id="Fig:densplot_01.ylab.vp.1">
          <g id="Fig:densplot_01.ylab.1">
            <g id="Fig:densplot_01.ylab.1.1" transform="translate(10.31, 138.09)" stroke-width="0.1">
              <g id="Fig:densplot_01.ylab.1.1.scale" transform="scale(1, -1)">
                <text x="0" y="0" id="Fig:densplot_01.ylab.1.1.text" transform="rotate(-90)" text-anchor="middle" opacity="1" stroke="rgb(0,0,0)" fill="rgb(0,0,0)" stroke-opacity="1" fill-opacity="1" font-size="12" font-weight="normal" font-style="normal">
                  <tspan id="Fig:densplot_01.ylab.1.1.tspan.1" dy="4.31" x="0">Density</tspan>
                </text>
              </g>
            </g>
          </g>
        </g>
        <g id="Fig:densplot_01.figure.vp.1"/>
        <defs>
          <clipPath id="Fig:densplot_01.panel.1.1.vp.1.clipPath">
            <rect x="44.8" y="42.19" width="231.2" height="191.81" fill="none" stroke="none"/>
          </clipPath>
        </defs>
        <g id="Fig:densplot_01.panel.1.1.vp.1" clip-path="url(#Fig:densplot_01.panel.1.1.vp.1.clipPath)"/>
        <g id="Fig:densplot_01.strip.1.1.off.vp.1"/>
        <g id="Fig:densplot_01.strip.left.1.1.off.vp.1">
          <g id="Fig:densplot_01.ticks.left.panel.1.1.1">
            <polyline id="Fig:densplot_01.ticks.left.panel.1.1.1.1" points="44.8,53.95 39.13,53.95" stroke="rgb(0,0,0)" opacity="1" stroke-dasharray="none" stroke-width="0.75" stroke-opacity="1" fill="none"/>
            <polyline id="Fig:densplot_01.ticks.left.panel.1.1.1.2" points="44.8,106.86 39.13,106.86" stroke="rgb(0,0,0)" opacity="1" stroke-dasharray="none" stroke-width="0.75" stroke-opacity="1" fill="none"/>
            <polyline id="Fig:densplot_01.ticks.left.panel.1.1.1.3" points="44.8,159.77 39.13,159.77" stroke="rgb(0,0,0)" opacity="1" stroke-dasharray="none" stroke-width="0.75" stroke-opacity="1" fill="none"/>
            <polyline id="Fig:densplot_01.ticks.left.panel.1.1.1.4" points="44.8,212.68 39.13,212.68" stroke="rgb(0,0,0)" opacity="1" stroke-dasharray="none" stroke-width="0.75" stroke-opacity="1" fill="none"/>
          </g>
          <g id="Fig:densplot_01.ticklabels.left.panel.1.1.1">
            <g id="Fig:densplot_01.ticklabels.left.panel.1.1.1.1" transform="translate(33.47, 53.95)" stroke-width="0.1">
              <g id="Fig:densplot_01.ticklabels.left.panel.1.1.1.1.scale" transform="scale(1, -1)">
                <text x="0" y="0" id="Fig:densplot_01.ticklabels.left.panel.1.1.1.1.text" transform="rotate(-90)" text-anchor="middle" stroke="rgb(0,0,0)" opacity="1" fill="rgb(0,0,0)" stroke-opacity="1" fill-opacity="1" font-size="9.6" font-weight="normal" font-style="normal">
                  <tspan id="Fig:densplot_01.ticklabels.left.panel.1.1.1.1.tspan.1" dy="0" x="0">0.00</tspan>
                </text>
              </g>
            </g>
            <g id="Fig:densplot_01.ticklabels.left.panel.1.1.1.2" transform="translate(33.47, 106.86)" stroke-width="0.1">
              <g id="Fig:densplot_01.ticklabels.left.panel.1.1.1.2.scale" transform="scale(1, -1)">
                <text x="0" y="0" id="Fig:densplot_01.ticklabels.left.panel.1.1.1.2.text" transform="rotate(-90)" text-anchor="middle" stroke="rgb(0,0,0)" opacity="1" fill="rgb(0,0,0)" stroke-opacity="1" fill-opacity="1" font-size="9.6" font-weight="normal" font-style="normal">
                  <tspan id="Fig:densplot_01.ticklabels.left.panel.1.1.1.2.tspan.1" dy="0" x="0">0.05</tspan>
                </text>
              </g>
            </g>
            <g id="Fig:densplot_01.ticklabels.left.panel.1.1.1.3" transform="translate(33.47, 159.77)" stroke-width="0.1">
              <g id="Fig:densplot_01.ticklabels.left.panel.1.1.1.3.scale" transform="scale(1, -1)">
                <text x="0" y="0" id="Fig:densplot_01.ticklabels.left.panel.1.1.1.3.text" transform="rotate(-90)" text-anchor="middle" stroke="rgb(0,0,0)" opacity="1" fill="rgb(0,0,0)" stroke-opacity="1" fill-opacity="1" font-size="9.6" font-weight="normal" font-style="normal">
                  <tspan id="Fig:densplot_01.ticklabels.left.panel.1.1.1.3.tspan.1" dy="0" x="0">0.10</tspan>
                </text>
              </g>
            </g>
            <g id="Fig:densplot_01.ticklabels.left.panel.1.1.1.4" transform="translate(33.47, 212.68)" stroke-width="0.1">
              <g id="Fig:densplot_01.ticklabels.left.panel.1.1.1.4.scale" transform="scale(1, -1)">
                <text x="0" y="0" id="Fig:densplot_01.ticklabels.left.panel.1.1.1.4.text" transform="rotate(-90)" text-anchor="middle" stroke="rgb(0,0,0)" opacity="1" fill="rgb(0,0,0)" stroke-opacity="1" fill-opacity="1" font-size="9.6" font-weight="normal" font-style="normal">
                  <tspan id="Fig:densplot_01.ticklabels.left.panel.1.1.1.4.tspan.1" dy="0" x="0">0.15</tspan>
                </text>
              </g>
            </g>
          </g>
        </g>
        <g id="Fig:densplot_01.panel.1.1.off.vp.1">
          <g id="Fig:densplot_01.ticks.bottom.panel.1.1.1">
            <polyline id="Fig:densplot_01.ticks.bottom.panel.1.1.1.1" points="45.03,42.19 45.03,36.52" stroke="rgb(0,0,0)" opacity="1" stroke-dasharray="none" stroke-width="0.75" stroke-opacity="1" fill="none"/>
            <polyline id="Fig:densplot_01.ticks.bottom.panel.1.1.1.2" points="78.32,42.19 78.32,36.52" stroke="rgb(0,0,0)" opacity="1" stroke-dasharray="none" stroke-width="0.75" stroke-opacity="1" fill="none"/>
            <polyline id="Fig:densplot_01.ticks.bottom.panel.1.1.1.3" points="111.61,42.19 111.61,36.52" stroke="rgb(0,0,0)" opacity="1" stroke-dasharray="none" stroke-width="0.75" stroke-opacity="1" fill="none"/>
            <polyline id="Fig:densplot_01.ticks.bottom.panel.1.1.1.4" points="144.9,42.19 144.9,36.52" stroke="rgb(0,0,0)" opacity="1" stroke-dasharray="none" stroke-width="0.75" stroke-opacity="1" fill="none"/>
            <polyline id="Fig:densplot_01.ticks.bottom.panel.1.1.1.5" points="178.19,42.19 178.19,36.52" stroke="rgb(0,0,0)" opacity="1" stroke-dasharray="none" stroke-width="0.75" stroke-opacity="1" fill="none"/>
            <polyline id="Fig:densplot_01.ticks.bottom.panel.1.1.1.6" points="211.48,42.19 211.48,36.52" stroke="rgb(0,0,0)" opacity="1" stroke-dasharray="none" stroke-width="0.75" stroke-opacity="1" fill="none"/>
            <polyline id="Fig:densplot_01.ticks.bottom.panel.1.1.1.7" points="244.77,42.19 244.77,36.52" stroke="rgb(0,0,0)" opacity="1" stroke-dasharray="none" stroke-width="0.75" stroke-opacity="1" fill="none"/>
          </g>
          <g id="Fig:densplot_01.ticklabels.bottom.panel.1.1.1">
            <g id="Fig:densplot_01.ticklabels.bottom.panel.1.1.1.1" transform="translate(78.32, 30.85)" stroke-width="0.1">
              <g id="Fig:densplot_01.ticklabels.bottom.panel.1.1.1.1.scale" transform="scale(1, -1)">
                <text x="0" y="0" id="Fig:densplot_01.ticklabels.bottom.panel.1.1.1.1.text" text-anchor="middle" stroke="rgb(0,0,0)" opacity="1" fill="rgb(0,0,0)" stroke-opacity="1" fill-opacity="1" font-size="9.6" font-weight="normal" font-style="normal">
                  <tspan id="Fig:densplot_01.ticklabels.bottom.panel.1.1.1.1.tspan.1" dy="7.18" x="0">2</tspan>
                </text>
              </g>
            </g>
            <g id="Fig:densplot_01.ticklabels.bottom.panel.1.1.1.2" transform="translate(111.61, 30.85)" stroke-width="0.1">
              <g id="Fig:densplot_01.ticklabels.bottom.panel.1.1.1.2.scale" transform="scale(1, -1)">
                <text x="0" y="0" id="Fig:densplot_01.ticklabels.bottom.panel.1.1.1.2.text" text-anchor="middle" stroke="rgb(0,0,0)" opacity="1" fill="rgb(0,0,0)" stroke-opacity="1" fill-opacity="1" font-size="9.6" font-weight="normal" font-style="normal">
                  <tspan id="Fig:densplot_01.ticklabels.bottom.panel.1.1.1.2.tspan.1" dy="7.18" x="0">4</tspan>
                </text>
              </g>
            </g>
            <g id="Fig:densplot_01.ticklabels.bottom.panel.1.1.1.3" transform="translate(144.9, 30.85)" stroke-width="0.1">
              <g id="Fig:densplot_01.ticklabels.bottom.panel.1.1.1.3.scale" transform="scale(1, -1)">
                <text x="0" y="0" id="Fig:densplot_01.ticklabels.bottom.panel.1.1.1.3.text" text-anchor="middle" stroke="rgb(0,0,0)" opacity="1" fill="rgb(0,0,0)" stroke-opacity="1" fill-opacity="1" font-size="9.6" font-weight="normal" font-style="normal">
                  <tspan id="Fig:densplot_01.ticklabels.bottom.panel.1.1.1.3.tspan.1" dy="7.18" x="0">6</tspan>
                </text>
              </g>
            </g>
            <g id="Fig:densplot_01.ticklabels.bottom.panel.1.1.1.4" transform="translate(178.19, 30.85)" stroke-width="0.1">
              <g id="Fig:densplot_01.ticklabels.bottom.panel.1.1.1.4.scale" transform="scale(1, -1)">
                <text x="0" y="0" id="Fig:densplot_01.ticklabels.bottom.panel.1.1.1.4.text" text-anchor="middle" stroke="rgb(0,0,0)" opacity="1" fill="rgb(0,0,0)" stroke-opacity="1" fill-opacity="1" font-size="9.6" font-weight="normal" font-style="normal">
                  <tspan id="Fig:densplot_01.ticklabels.bottom.panel.1.1.1.4.tspan.1" dy="7.18" x="0">8</tspan>
                </text>
              </g>
            </g>
            <g id="Fig:densplot_01.ticklabels.bottom.panel.1.1.1.5" transform="translate(211.48, 30.85)" stroke-width="0.1">
              <g id="Fig:densplot_01.ticklabels.bottom.panel.1.1.1.5.scale" transform="scale(1, -1)">
                <text x="0" y="0" id="Fig:densplot_01.ticklabels.bottom.panel.1.1.1.5.text" text-anchor="middle" stroke="rgb(0,0,0)" opacity="1" fill="rgb(0,0,0)" stroke-opacity="1" fill-opacity="1" font-size="9.6" font-weight="normal" font-style="normal">
                  <tspan id="Fig:densplot_01.ticklabels.bottom.panel.1.1.1.5.tspan.1" dy="7.18" x="0">10</tspan>
                </text>
              </g>
            </g>
            <g id="Fig:densplot_01.ticklabels.bottom.panel.1.1.1.6" transform="translate(244.77, 30.85)" stroke-width="0.1">
              <g id="Fig:densplot_01.ticklabels.bottom.panel.1.1.1.6.scale" transform="scale(1, -1)">
                <text x="0" y="0" id="Fig:densplot_01.ticklabels.bottom.panel.1.1.1.6.text" text-anchor="middle" stroke="rgb(0,0,0)" opacity="1" fill="rgb(0,0,0)" stroke-opacity="1" fill-opacity="1" font-size="9.6" font-weight="normal" font-style="normal">
                  <tspan id="Fig:densplot_01.ticklabels.bottom.panel.1.1.1.6.tspan.1" dy="7.18" x="0">12</tspan>
                </text>
              </g>
            </g>
          </g>
        </g>
        <defs>
          <clipPath id="Fig:densplot_01.panel.1.1.vp.2.clipPath">
            <rect x="44.8" y="42.19" width="231.2" height="191.81" fill="none" stroke="none"/>
          </clipPath>
        </defs>
        <g id="Fig:densplot_01.panel.1.1.vp.2" clip-path="url(#Fig:densplot_01.panel.1.1.vp.2.clipPath)">
          <g id="Fig:densplot_01.xyplot.lines.group.1.panel.1.1.1">
            <polyline id="Fig:densplot_01.xyplot.lines.group.1.panel.1.1.1.1" points="59.26,53.98 59.65,53.99 60.05,54 60.44,54.02 60.84,54.05 61.24,54.08 61.63,54.12 62.03,54.17 62.42,54.24 62.82,54.32 63.22,54.42 63.61,54.54 64.01,54.69 64.4,54.87 64.8,55.09 65.19,55.35 65.59,55.65 65.99,56.02 66.38,56.43 66.78,56.92 67.17,57.47 67.57,58.09 67.97,58.81 68.36,59.63 68.76,60.53 69.15,61.53 69.55,62.63 69.95,63.83 70.34,65.14 70.74,66.57 71.13,68.11 71.53,69.75 71.93,71.49 72.32,73.33 72.72,75.27 73.11,77.29 73.51,79.41 73.91,81.6 74.3,83.85 74.7,86.15 75.09,88.51 75.49,90.9 75.88,93.32 76.28,95.75 76.68,98.19 77.07,100.62 77.47,103.04 77.86,105.43 78.26,107.79 78.66,110.1 79.05,112.36 79.45,114.56 79.84,116.7 80.24,118.77 80.64,120.78 81.03,122.71 81.43,124.56 81.82,126.32 82.22,128.01 82.62,129.62 83.01,131.15 83.41,132.62 83.8,134.02 84.2,135.34 84.6,136.6 84.99,137.8 85.39,138.94 85.78,140.04 86.18,141.09 86.57,142.1 86.97,143.06 87.37,143.99 87.76,144.89 88.16,145.76 88.55,146.6 88.95,147.41 89.35,148.2 89.74,148.95 90.14,149.69 90.53,150.39 90.93,151.07 91.33,151.73 91.72,152.36 92.12,152.96 92.51,153.53 92.91,154.08 93.31,154.61 93.7,155.11 94.1,155.58 94.49,156.04 94.89,156.49 95.29,156.91 95.68,157.33 96.08,157.74 96.47,158.14 96.87,158.55 97.26,158.97 97.66,159.39 98.06,159.83 98.45,160.28 98.85,160.76 99.24,161.26 99.64,161.78 100.04,162.33 100.43,162.92 100.83,163.53 101.22,164.17 101.62,164.84 102.02,165.54 102.41,166.26 102.81,167.01 103.2,167.78 103.6,168.57 104,169.38 104.39,170.2 104.79,171.03 105.18,171.88 105.58,172.73 105.98,173.6 106.37,174.46 106.77,175.34 107.16,176.22 107.56,177.1 107.95,177.99 108.35,178.88 108.75,179.78 109.14,180.68 109.54,181.58 109.93,182.49 110.33,183.41 110.73,184.33 111.12,185.25 111.52,186.18 111.91,187.12 112.31,188.06 112.71,189 113.1,189.95 113.5,190.9 113.89,191.87 114.29,192.83 114.69,193.81 115.08,194.79 115.48,195.78 115.87,196.78 116.27,197.79 116.67,198.81 117.06,199.83 117.46,200.87 117.85,201.91 118.25,202.96 118.65,204 119.04,205.05 119.44,206.1 119.83,207.14 120.23,208.17 120.62,209.19 121.02,210.19 121.42,211.17 121.81,212.12 122.21,213.05 122.6,213.93 123,214.78 123.4,215.58 123.79,216.34 124.19,217.05 124.58,217.71 124.98,218.32 125.38,218.87 125.77,219.37 126.17,219.81 126.56,220.21 126.96,220.54 127.36,220.83 127.75,221.07 128.15,221.25 128.54,221.38 128.94,221.47 129.34,221.51 129.73,221.52 130.13,221.48 130.52,221.41 130.92,221.29 131.31,221.14 131.71,220.96 132.11,220.75 132.5,220.51 132.9,220.25 133.29,219.96 133.69,219.64 134.09,219.31 134.48,218.96 134.88,218.59 135.27,218.21 135.67,217.82 136.07,217.41 136.46,217 136.86,216.58 137.25,216.16 137.65,215.74 138.05,215.31 138.44,214.88 138.84,214.45 139.23,214.01 139.63,213.58 140.03,213.14 140.42,212.69 140.82,212.24 141.21,211.77 141.61,211.29 142,210.8 142.4,210.29 142.8,209.76 143.19,209.21 143.59,208.64 143.98,208.04 144.38,207.42 144.78,206.76 145.17,206.09 145.57,205.39 145.96,204.67 146.36,203.92 146.76,203.16 147.15,202.38 147.55,201.58 147.94,200.78 148.34,199.96 148.74,199.14 149.13,198.32 149.53,197.49 149.92,196.67 150.32,195.85 150.72,195.04 151.11,194.24 151.51,193.44 151.9,192.65 152.3,191.88 152.69,191.12 153.09,190.38 153.49,189.65 153.88,188.93 154.28,188.23 154.67,187.55 155.07,186.89 155.47,186.25 155.86,185.63 156.26,185.03 156.65,184.45 157.05,183.9 157.45,183.36 157.84,182.86 158.24,182.37 158.63,181.92 159.03,181.48 159.43,181.07 159.82,180.67 160.22,180.3 160.61,179.95 161.01,179.61 161.41,179.29 161.8,178.98 162.2,178.68 162.59,178.38 162.99,178.09 163.38,177.81 163.78,177.53 164.18,177.25 164.57,176.96 164.97,176.68 165.36,176.4 165.76,176.11 166.16,175.83 166.55,175.54 166.95,175.26 167.34,174.99 167.74,174.71 168.14,174.45 168.53,174.19 168.93,173.95 169.32,173.71 169.72,173.49 170.12,173.28 170.51,173.08 170.91,172.89 171.3,172.71 171.7,172.55 172.1,172.39 172.49,172.24 172.89,172.09 173.28,171.95 173.68,171.8 174.07,171.65 174.47,171.49 174.87,171.32 175.26,171.14 175.66,170.95 176.05,170.74 176.45,170.51 176.85,170.27 177.24,170.02 177.64,169.74 178.03,169.45 178.43,169.14 178.83,168.83 179.22,168.5 179.62,168.16 180.01,167.82 180.41,167.47 180.81,167.12 181.2,166.77 181.6,166.41 181.99,166.06 182.39,165.71 182.79,165.37 183.18,165.03 183.58,164.68 183.97,164.34 184.37,164.01 184.76,163.67 185.16,163.32 185.56,162.97 185.95,162.62 186.35,162.26 186.74,161.89 187.14,161.5 187.54,161.11 187.93,160.69 188.33,160.26 188.72,159.81 189.12,159.34 189.52,158.85 189.91,158.34 190.31,157.8 190.7,157.24 191.1,156.66 191.5,156.05 191.89,155.42 192.29,154.76 192.68,154.09 193.08,153.39 193.48,152.68 193.87,151.94 194.27,151.19 194.66,150.43 195.06,149.66 195.46,148.87 195.85,148.08 196.25,147.29 196.64,146.49 197.04,145.69 197.43,144.89 197.83,144.1 198.23,143.32 198.62,142.54 199.02,141.77 199.41,141.01 199.81,140.27 200.21,139.54 200.6,138.81 201,138.1 201.39,137.41 201.79,136.72 202.19,136.05 202.58,135.38 202.98,134.72 203.37,134.07 203.77,133.43 204.17,132.78 204.56,132.14 204.96,131.49 205.35,130.85 205.75,130.19 206.15,129.54 206.54,128.87 206.94,128.2 207.33,127.51 207.73,126.82 208.12,126.12 208.52,125.41 208.92,124.69 209.31,123.96 209.71,123.22 210.1,122.47 210.5,121.72 210.9,120.96 211.29,120.19 211.69,119.42 212.08,118.65 212.48,117.88 212.88,117.1 213.27,116.33 213.67,115.56 214.06,114.79 214.46,114.02 214.86,113.26 215.25,112.51 215.65,111.76 216.04,111.02 216.44,110.29 216.84,109.56 217.23,108.84 217.63,108.12 218.02,107.42 218.42,106.72 218.81,106.02 219.21,105.33 219.61,104.63 220,103.95 220.4,103.26 220.79,102.57 221.19,101.89 221.59,101.2 221.98,100.52 222.38,99.83 222.77,99.14 223.17,98.46 223.57,97.78 223.96,97.1 224.36,96.42 224.75,95.76 225.15,95.09 225.55,94.44 225.94,93.79 226.34,93.16 226.73,92.53 227.13,91.92 227.53,91.32 227.92,90.73 228.32,90.15 228.71,89.59 229.11,89.04 229.5,88.5 229.9,87.97 230.3,87.46 230.69,86.96 231.09,86.47 231.48,86 231.88,85.53 232.28,85.08 232.67,84.64 233.07,84.21 233.46,83.79 233.86,83.37 234.26,82.97 234.65,82.58 235.05,82.19 235.44,81.81 235.84,81.43 236.24,81.06 236.63,80.69 237.03,80.32 237.42,79.95 237.82,79.58 238.22,79.2 238.61,78.82 239.01,78.43 239.4,78.03 239.8,77.62 240.19,77.19 240.59,76.75 240.99,76.29 241.38,75.81 241.78,75.31 242.17,74.79 242.57,74.25 242.97,73.68 243.36,73.08 243.76,72.47 244.15,71.83 244.55,71.17 244.95,70.48 245.34,69.78 245.74,69.05 246.13,68.31 246.53,67.55 246.93,66.79 247.32,66.02 247.72,65.25 248.11,64.48 248.51,63.72 248.91,62.97 249.3,62.23 249.7,61.52 250.09,60.83 250.49,60.16 250.88,59.53 251.28,58.94 251.68,58.38 252.07,57.86 252.47,57.38 252.86,56.94 253.26,56.54 253.66,56.18 254.05,55.85 254.45,55.57 254.84,55.31 255.24,55.09 255.64,54.89 256.03,54.73 256.43,54.59 256.82,54.47 257.22,54.37 257.62,54.28 258.01,54.22 258.41,54.16 258.8,54.11 259.2,54.08 259.6,54.05 259.99,54.02 260.39,54 260.78,53.99 261.18,53.98 261.57,53.97" stroke-dasharray="none" stroke="rgb(31,120,180)" stroke-width="0.75" opacity="1" stroke-opacity="1" fill="none"/>
          </g>
          <g id="Fig:densplot_01.xyplot.lines.group.2.panel.1.1.1">
            <polyline id="Fig:densplot_01.xyplot.lines.group.2.panel.1.1.1.1" points="59.08,54 59.47,54.01 59.87,54.04 60.27,54.07 60.66,54.11 61.06,54.16 61.46,54.22 61.85,54.3 62.25,54.4 62.65,54.52 63.04,54.68 63.44,54.87 63.84,55.1 64.23,55.37 64.63,55.7 65.03,56.08 65.42,56.53 65.82,57.07 66.21,57.69 66.61,58.4 67.01,59.21 67.4,60.12 67.8,61.15 68.2,62.28 68.59,63.57 68.99,64.98 69.39,66.51 69.78,68.17 70.18,69.96 70.58,71.86 70.97,73.89 71.37,76.05 71.77,78.31 72.16,80.66 72.56,83.09 72.96,85.59 73.35,88.15 73.75,90.76 74.15,93.4 74.54,96.05 74.94,98.69 75.33,101.33 75.73,103.94 76.13,106.51 76.52,109.02 76.92,111.47 77.32,113.84 77.71,116.14 78.11,118.35 78.51,120.47 78.9,122.5 79.3,124.42 79.7,126.24 80.09,127.95 80.49,129.57 80.89,131.09 81.28,132.51 81.68,133.84 82.08,135.07 82.47,136.21 82.87,137.27 83.27,138.25 83.66,139.17 84.06,140.01 84.46,140.8 84.85,141.51 85.25,142.18 85.64,142.8 86.04,143.39 86.44,143.94 86.83,144.45 87.23,144.94 87.63,145.4 88.02,145.85 88.42,146.28 88.82,146.71 89.21,147.12 89.61,147.53 90.01,147.95 90.4,148.36 90.8,148.78 91.2,149.2 91.59,149.64 91.99,150.08 92.39,150.54 92.78,151.02 93.18,151.51 93.58,152.02 93.97,152.54 94.37,153.09 94.77,153.65 95.16,154.23 95.56,154.83 95.95,155.44 96.35,156.07 96.75,156.72 97.14,157.38 97.54,158.06 97.94,158.75 98.33,159.45 98.73,160.16 99.13,160.88 99.52,161.6 99.92,162.34 100.32,163.08 100.71,163.82 101.11,164.58 101.51,165.33 101.9,166.09 102.3,166.85 102.7,167.61 103.09,168.38 103.49,169.14 103.89,169.91 104.28,170.67 104.68,171.44 105.08,172.21 105.47,172.98 105.87,173.75 106.26,174.52 106.66,175.3 107.06,176.07 107.45,176.85 107.85,177.64 108.25,178.42 108.64,179.22 109.04,180.02 109.44,180.82 109.83,181.63 110.23,182.45 110.63,183.27 111.02,184.1 111.42,184.93 111.82,185.77 112.21,186.6 112.61,187.44 113.01,188.27 113.4,189.1 113.8,189.92 114.2,190.73 114.59,191.53 114.99,192.33 115.39,193.11 115.78,193.87 116.18,194.63 116.57,195.37 116.97,196.1 117.37,196.82 117.76,197.53 118.16,198.23 118.56,198.92 118.95,199.61 119.35,200.3 119.75,200.99 120.14,201.68 120.54,202.37 120.94,203.06 121.33,203.75 121.73,204.44 122.13,205.14 122.52,205.83 122.92,206.52 123.32,207.2 123.71,207.88 124.11,208.54 124.51,209.19 124.9,209.82 125.3,210.42 125.7,211 126.09,211.55 126.49,212.07 126.88,212.55 127.28,212.99 127.68,213.4 128.07,213.76 128.47,214.06 128.87,214.33 129.26,214.54 129.66,214.71 130.06,214.84 130.45,214.91 130.85,214.93 131.25,214.91 131.64,214.84 132.04,214.73 132.44,214.58 132.83,214.39 133.23,214.17 133.63,213.92 134.02,213.64 134.42,213.33 134.82,213.01 135.21,212.66 135.61,212.31 136,211.94 136.4,211.56 136.8,211.18 137.19,210.79 137.59,210.39 137.99,209.99 138.38,209.59 138.78,209.19 139.18,208.78 139.57,208.37 139.97,207.95 140.37,207.53 140.76,207.11 141.16,206.69 141.56,206.26 141.95,205.82 142.35,205.38 142.75,204.94 143.14,204.5 143.54,204.06 143.94,203.62 144.33,203.18 144.73,202.74 145.13,202.3 145.52,201.87 145.92,201.43 146.31,201 146.71,200.57 147.11,200.14 147.5,199.7 147.9,199.25 148.3,198.8 148.69,198.33 149.09,197.86 149.49,197.36 149.88,196.85 150.28,196.32 150.68,195.76 151.07,195.19 151.47,194.6 151.87,193.98 152.26,193.35 152.66,192.7 153.06,192.04 153.45,191.37 153.85,190.7 154.25,190.03 154.64,189.35 155.04,188.69 155.44,188.04 155.83,187.4 156.23,186.79 156.62,186.2 157.02,185.63 157.42,185.09 157.81,184.58 158.21,184.1 158.61,183.65 159,183.23 159.4,182.84 159.8,182.47 160.19,182.13 160.59,181.81 160.99,181.51 161.38,181.23 161.78,180.96 162.18,180.7 162.57,180.45 162.97,180.21 163.37,179.98 163.76,179.74 164.16,179.52 164.56,179.29 164.95,179.07 165.35,178.84 165.75,178.62 166.14,178.4 166.54,178.19 166.93,177.98 167.33,177.77 167.73,177.57 168.12,177.38 168.52,177.19 168.92,177.01 169.31,176.84 169.71,176.67 170.11,176.51 170.5,176.36 170.9,176.21 171.3,176.06 171.69,175.91 172.09,175.76 172.49,175.6 172.88,175.44 173.28,175.27 173.68,175.08 174.07,174.88 174.47,174.67 174.87,174.44 175.26,174.19 175.66,173.92 176.06,173.63 176.45,173.33 176.85,173 177.24,172.65 177.64,172.29 178.04,171.91 178.43,171.52 178.83,171.11 179.23,170.69 179.62,170.26 180.02,169.82 180.42,169.36 180.81,168.9 181.21,168.43 181.61,167.95 182,167.47 182.4,166.98 182.8,166.49 183.19,165.99 183.59,165.49 183.99,164.98 184.38,164.47 184.78,163.96 185.18,163.45 185.57,162.93 185.97,162.41 186.37,161.89 186.76,161.37 187.16,160.85 187.55,160.32 187.95,159.8 188.35,159.27 188.74,158.75 189.14,158.22 189.54,157.69 189.93,157.15 190.33,156.62 190.73,156.08 191.12,155.54 191.52,154.99 191.92,154.45 192.31,153.89 192.71,153.34 193.11,152.77 193.5,152.2 193.9,151.63 194.3,151.05 194.69,150.46 195.09,149.86 195.49,149.25 195.88,148.63 196.28,148 196.67,147.36 197.07,146.7 197.47,146.04 197.86,145.35 198.26,144.66 198.66,143.95 199.05,143.22 199.45,142.47 199.85,141.72 200.24,140.94 200.64,140.15 201.04,139.35 201.43,138.53 201.83,137.7 202.23,136.86 202.62,136.01 203.02,135.15 203.42,134.28 203.81,133.41 204.21,132.53 204.61,131.65 205,130.77 205.4,129.89 205.8,129.02 206.19,128.14 206.59,127.28 206.98,126.42 207.38,125.57 207.78,124.74 208.17,123.91 208.57,123.1 208.97,122.29 209.36,121.51 209.76,120.73 210.16,119.97 210.55,119.22 210.95,118.49 211.35,117.76 211.74,117.05 212.14,116.36 212.54,115.68 212.93,115.01 213.33,114.35 213.73,113.7 214.12,113.07 214.52,112.44 214.92,111.83 215.31,111.23 215.71,110.64 216.11,110.06 216.5,109.49 216.9,108.92 217.29,108.36 217.69,107.8 218.09,107.24 218.48,106.67 218.88,106.11 219.28,105.53 219.67,104.95 220.07,104.36 220.47,103.75 220.86,103.14 221.26,102.5 221.66,101.86 222.05,101.2 222.45,100.53 222.85,99.85 223.24,99.15 223.64,98.45 224.04,97.74 224.43,97.03 224.83,96.32 225.23,95.61 225.62,94.9 226.02,94.2 226.42,93.51 226.81,92.84 227.21,92.17 227.6,91.52 228,90.89 228.4,90.27 228.79,89.67 229.19,89.09 229.59,88.52 229.98,87.97 230.38,87.43 230.78,86.9 231.17,86.38 231.57,85.88 231.97,85.38 232.36,84.89 232.76,84.41 233.16,83.93 233.55,83.46 233.95,83 234.35,82.54 234.74,82.09 235.14,81.64 235.54,81.19 235.93,80.76 236.33,80.32 236.73,79.9 237.12,79.48 237.52,79.07 237.91,78.66 238.31,78.26 238.71,77.86 239.1,77.46 239.5,77.07 239.9,76.67 240.29,76.27 240.69,75.87 241.09,75.45 241.48,75.03 241.88,74.59 242.28,74.13 242.67,73.65 243.07,73.15 243.47,72.62 243.86,72.07 244.26,71.5 244.66,70.9 245.05,70.26 245.45,69.6 245.85,68.92 246.24,68.22 246.64,67.49 247.04,66.76 247.43,66 247.83,65.25 248.22,64.49 248.62,63.73 249.02,62.98 249.41,62.25 249.81,61.53 250.21,60.84 250.6,60.18 251,59.54 251.4,58.95 251.79,58.38 252.19,57.86 252.59,57.37 252.98,56.93 253.38,56.53 253.78,56.17 254.17,55.85 254.57,55.56 254.97,55.3 255.36,55.08 255.76,54.89 256.16,54.73 256.55,54.58 256.95,54.47 257.34,54.36 257.74,54.28 258.14,54.21 258.53,54.16 258.93,54.11 259.33,54.08 259.72,54.05 260.12,54.02 260.52,54 260.91,53.99 261.31,53.98 261.71,53.97" stroke-dasharray="none" stroke="rgb(31,120,180)" stroke-width="0.75" opacity="1" stroke-opacity="1" fill="none"/>
          </g>
          <g id="Fig:densplot_01.xyplot.lines.group.3.panel.1.1.1">
            <polyline id="Fig:densplot_01.xyplot.lines.group.3.panel.1.1.1.1" points="59.32,53.98 59.71,53.99 60.11,54 60.51,54.02 60.9,54.05 61.3,54.08 61.69,54.12 62.09,54.17 62.48,54.23 62.88,54.31 63.28,54.41 63.67,54.53 64.07,54.68 64.46,54.85 64.86,55.06 65.25,55.32 65.65,55.62 66.05,55.97 66.44,56.37 66.84,56.84 67.23,57.37 67.63,57.99 68.02,58.69 68.42,59.47 68.81,60.34 69.21,61.31 69.61,62.37 70,63.53 70.4,64.81 70.79,66.19 71.19,67.68 71.58,69.26 71.98,70.94 72.38,72.72 72.77,74.6 73.17,76.57 73.56,78.63 73.96,80.75 74.35,82.95 74.75,85.2 75.15,87.5 75.54,89.85 75.94,92.24 76.33,94.65 76.73,97.07 77.12,99.5 77.52,101.93 77.91,104.35 78.31,106.75 78.71,109.12 79.1,111.46 79.5,113.76 79.89,116.01 80.29,118.21 80.68,120.36 81.08,122.44 81.48,124.45 81.87,126.39 82.27,128.26 82.66,130.05 83.06,131.77 83.45,133.41 83.85,134.97 84.25,136.44 84.64,137.83 85.04,139.14 85.43,140.37 85.83,141.53 86.22,142.61 86.62,143.62 87.02,144.54 87.41,145.4 87.81,146.19 88.2,146.92 88.6,147.59 88.99,148.21 89.39,148.77 89.78,149.27 90.18,149.74 90.58,150.16 90.97,150.55 91.37,150.92 91.76,151.26 92.16,151.58 92.55,151.89 92.95,152.2 93.35,152.5 93.74,152.81 94.14,153.13 94.53,153.46 94.93,153.82 95.32,154.2 95.72,154.6 96.12,155.04 96.51,155.52 96.91,156.02 97.3,156.57 97.7,157.16 98.09,157.78 98.49,158.45 98.88,159.15 99.28,159.88 99.68,160.65 100.07,161.46 100.47,162.29 100.86,163.15 101.26,164.03 101.65,164.93 102.05,165.85 102.45,166.78 102.84,167.71 103.24,168.66 103.63,169.61 104.03,170.55 104.42,171.5 104.82,172.44 105.22,173.37 105.61,174.29 106.01,175.21 106.4,176.11 106.8,177 107.19,177.88 107.59,178.76 107.98,179.62 108.38,180.48 108.78,181.32 109.17,182.16 109.57,183 109.96,183.84 110.36,184.68 110.75,185.52 111.15,186.36 111.55,187.2 111.94,188.06 112.34,188.92 112.73,189.78 113.13,190.65 113.52,191.53 113.92,192.41 114.32,193.29 114.71,194.17 115.11,195.05 115.5,195.92 115.9,196.79 116.29,197.64 116.69,198.48 117.09,199.31 117.48,200.12 117.88,200.9 118.27,201.67 118.67,202.42 119.06,203.15 119.46,203.85 119.85,204.54 120.25,205.2 120.65,205.86 121.04,206.49 121.44,207.12 121.83,207.74 122.23,208.35 122.62,208.96 123.02,209.57 123.42,210.17 123.81,210.78 124.21,211.38 124.6,211.98 125,212.59 125.39,213.18 125.79,213.78 126.19,214.36 126.58,214.94 126.98,215.5 127.37,216.04 127.77,216.56 128.16,217.06 128.56,217.52 128.95,217.95 129.35,218.35 129.75,218.7 130.14,219.02 130.54,219.28 130.93,219.5 131.33,219.66 131.72,219.78 132.12,219.86 132.52,219.88 132.91,219.86 133.31,219.78 133.7,219.66 134.1,219.5 134.49,219.3 134.89,219.07 135.29,218.8 135.68,218.5 136.08,218.18 136.47,217.83 136.87,217.46 137.26,217.07 137.66,216.67 138.05,216.25 138.45,215.82 138.85,215.37 139.24,214.92 139.64,214.45 140.03,213.98 140.43,213.49 140.82,212.99 141.22,212.48 141.62,211.96 142.01,211.42 142.41,210.87 142.8,210.3 143.2,209.73 143.59,209.13 143.99,208.53 144.39,207.9 144.78,207.27 145.18,206.62 145.57,205.96 145.97,205.29 146.36,204.62 146.76,203.94 147.16,203.26 147.55,202.58 147.95,201.9 148.34,201.23 148.74,200.57 149.13,199.91 149.53,199.27 149.92,198.64 150.32,198.03 150.72,197.43 151.11,196.85 151.51,196.29 151.9,195.75 152.3,195.22 152.69,194.71 153.09,194.21 153.49,193.72 153.88,193.25 154.28,192.78 154.67,192.31 155.07,191.85 155.46,191.39 155.86,190.92 156.26,190.45 156.65,189.98 157.05,189.5 157.44,189 157.84,188.5 158.23,187.99 158.63,187.47 159.02,186.94 159.42,186.41 159.82,185.87 160.21,185.32 160.61,184.77 161,184.21 161.4,183.66 161.79,183.11 162.19,182.56 162.59,182.01 162.98,181.47 163.38,180.93 163.77,180.41 164.17,179.88 164.56,179.37 164.96,178.87 165.36,178.37 165.75,177.88 166.15,177.4 166.54,176.93 166.94,176.47 167.33,176.02 167.73,175.58 168.12,175.15 168.52,174.74 168.92,174.34 169.31,173.97 169.71,173.61 170.1,173.27 170.5,172.96 170.89,172.67 171.29,172.4 171.69,172.16 172.08,171.95 172.48,171.76 172.87,171.6 173.27,171.46 173.66,171.34 174.06,171.24 174.46,171.16 174.85,171.09 175.25,171.02 175.64,170.96 176.04,170.9 176.43,170.84 176.83,170.77 177.22,170.69 177.62,170.6 178.02,170.48 178.41,170.35 178.81,170.19 179.2,170.01 179.6,169.8 179.99,169.56 180.39,169.29 180.79,168.99 181.18,168.67 181.58,168.32 181.97,167.95 182.37,167.55 182.76,167.13 183.16,166.69 183.56,166.23 183.95,165.77 184.35,165.29 184.74,164.81 185.14,164.32 185.53,163.84 185.93,163.35 186.33,162.88 186.72,162.4 187.12,161.94 187.51,161.48 187.91,161.03 188.3,160.59 188.7,160.15 189.09,159.72 189.49,159.29 189.89,158.86 190.28,158.42 190.68,157.98 191.07,157.52 191.47,157.05 191.86,156.56 192.26,156.06 192.66,155.53 193.05,154.98 193.45,154.41 193.84,153.81 194.24,153.19 194.63,152.55 195.03,151.89 195.43,151.2 195.82,150.5 196.22,149.78 196.61,149.04 197.01,148.29 197.4,147.53 197.8,146.75 198.19,145.97 198.59,145.18 198.99,144.39 199.38,143.58 199.78,142.77 200.17,141.96 200.57,141.14 200.96,140.31 201.36,139.48 201.76,138.64 202.15,137.8 202.55,136.96 202.94,136.11 203.34,135.26 203.73,134.4 204.13,133.54 204.53,132.68 204.92,131.81 205.32,130.94 205.71,130.07 206.11,129.2 206.5,128.32 206.9,127.44 207.29,126.56 207.69,125.68 208.09,124.8 208.48,123.91 208.88,123.03 209.27,122.15 209.67,121.27 210.06,120.4 210.46,119.53 210.86,118.66 211.25,117.8 211.65,116.96 212.04,116.12 212.44,115.29 212.83,114.48 213.23,113.67 213.63,112.89 214.02,112.12 214.42,111.36 214.81,110.62 215.21,109.9 215.6,109.2 216,108.51 216.4,107.84 216.79,107.18 217.19,106.54 217.58,105.92 217.98,105.3 218.37,104.71 218.77,104.12 219.16,103.53 219.56,102.96 219.96,102.39 220.35,101.83 220.75,101.26 221.14,100.7 221.54,100.13 221.93,99.56 222.33,98.98 222.73,98.4 223.12,97.81 223.52,97.21 223.91,96.6 224.31,95.98 224.7,95.35 225.1,94.71 225.5,94.06 225.89,93.41 226.29,92.75 226.68,92.08 227.08,91.42 227.47,90.75 227.87,90.09 228.26,89.44 228.66,88.8 229.06,88.17 229.45,87.55 229.85,86.96 230.24,86.38 230.64,85.82 231.03,85.29 231.43,84.78 231.83,84.3 232.22,83.84 232.62,83.41 233.01,83.01 233.41,82.62 233.8,82.26 234.2,81.91 234.6,81.59 234.99,81.27 235.39,80.97 235.78,80.68 236.18,80.39 236.57,80.11 236.97,79.82 237.36,79.53 237.76,79.24 238.16,78.93 238.55,78.61 238.95,78.28 239.34,77.92 239.74,77.55 240.13,77.15 240.53,76.73 240.93,76.28 241.32,75.8 241.72,75.29 242.11,74.75 242.51,74.19 242.9,73.58 243.3,72.95 243.7,72.29 244.09,71.6 244.49,70.89 244.88,70.15 245.28,69.39 245.67,68.61 246.07,67.83 246.47,67.03 246.86,66.23 247.26,65.43 247.65,64.63 248.05,63.85 248.44,63.08 248.84,62.33 249.23,61.6 249.63,60.9 250.03,60.23 250.42,59.59 250.82,58.99 251.21,58.43 251.61,57.91 252,57.43 252.4,56.99 252.8,56.59 253.19,56.22 253.59,55.89 253.98,55.6 254.38,55.35 254.77,55.13 255.17,54.93 255.57,54.76 255.96,54.62 256.36,54.49 256.75,54.39 257.15,54.3 257.54,54.23 257.94,54.17 258.33,54.13 258.73,54.09 259.13,54.05 259.52,54.03 259.92,54.01 260.31,53.99 260.71,53.98 261.1,53.97 261.5,53.97" stroke-dasharray="none" stroke="rgb(31,120,180)" stroke-width="0.75" opacity="1" stroke-opacity="1" fill="none"/>
          </g>
          <g id="Fig:densplot_01.xyplot.lines.group.4.panel.1.1.1">
            <polyline id="Fig:densplot_01.xyplot.lines.group.4.panel.1.1.1.1" points="59.01,54 59.4,54.01 59.8,54.04 60.2,54.07 60.59,54.1 60.99,54.15 61.39,54.22 61.78,54.3 62.18,54.4 62.58,54.52 62.97,54.67 63.37,54.86 63.77,55.09 64.16,55.36 64.56,55.69 64.96,56.07 65.35,56.52 65.75,57.04 66.15,57.66 66.54,58.37 66.94,59.18 67.34,60.09 67.74,61.12 68.13,62.26 68.53,63.51 68.93,64.92 69.32,66.46 69.72,68.12 70.12,69.91 70.51,71.82 70.91,73.84 71.31,75.98 71.7,78.24 72.1,80.6 72.5,83.03 72.89,85.53 73.29,88.09 73.69,90.69 74.08,93.33 74.48,95.98 74.88,98.62 75.27,101.26 75.67,103.86 76.07,106.43 76.47,108.94 76.86,111.39 77.26,113.77 77.66,116.06 78.05,118.27 78.45,120.39 78.85,122.42 79.24,124.36 79.64,126.18 80.04,127.91 80.43,129.54 80.83,131.07 81.23,132.51 81.62,133.86 82.02,135.13 82.42,136.3 82.81,137.39 83.21,138.41 83.61,139.35 84,140.24 84.4,141.06 84.8,141.83 85.2,142.54 85.59,143.2 85.99,143.83 86.39,144.41 86.78,144.96 87.18,145.49 87.58,145.98 87.97,146.46 88.37,146.91 88.77,147.36 89.16,147.79 89.56,148.22 89.96,148.65 90.35,149.08 90.75,149.51 91.15,149.94 91.54,150.39 91.94,150.84 92.34,151.31 92.73,151.78 93.13,152.28 93.53,152.78 93.93,153.3 94.32,153.83 94.72,154.37 95.12,154.93 95.51,155.49 95.91,156.07 96.31,156.65 96.7,157.24 97.1,157.84 97.5,158.44 97.89,159.06 98.29,159.68 98.69,160.3 99.08,160.94 99.48,161.59 99.88,162.24 100.27,162.91 100.67,163.58 101.07,164.27 101.46,164.97 101.86,165.69 102.26,166.41 102.66,167.15 103.05,167.9 103.45,168.66 103.85,169.44 104.24,170.22 104.64,171.01 105.04,171.81 105.43,172.61 105.83,173.42 106.23,174.23 106.62,175.04 107.02,175.85 107.42,176.66 107.81,177.48 108.21,178.29 108.61,179.1 109,179.9 109.4,180.71 109.8,181.52 110.19,182.33 110.59,183.14 110.99,183.96 111.39,184.78 111.78,185.6 112.18,186.44 112.58,187.29 112.97,188.15 113.37,189.01 113.77,189.89 114.16,190.78 114.56,191.68 114.96,192.58 115.35,193.49 115.75,194.4 116.15,195.31 116.54,196.22 116.94,197.12 117.34,198 117.73,198.86 118.13,199.69 118.53,200.5 118.92,201.28 119.32,202.02 119.72,202.73 120.12,203.4 120.51,204.03 120.91,204.62 121.31,205.18 121.7,205.7 122.1,206.19 122.5,206.65 122.89,207.09 123.29,207.5 123.69,207.91 124.08,208.3 124.48,208.68 124.88,209.05 125.27,209.43 125.67,209.8 126.07,210.16 126.46,210.52 126.86,210.88 127.26,211.23 127.66,211.57 128.05,211.9 128.45,212.2 128.85,212.48 129.24,212.73 129.64,212.95 130.04,213.14 130.43,213.29 130.83,213.4 131.23,213.47 131.62,213.5 132.02,213.5 132.42,213.45 132.81,213.37 133.21,213.26 133.61,213.11 134,212.93 134.4,212.73 134.8,212.5 135.19,212.24 135.59,211.97 135.99,211.68 136.39,211.38 136.78,211.05 137.18,210.71 137.58,210.36 137.97,209.99 138.37,209.61 138.77,209.22 139.16,208.81 139.56,208.39 139.96,207.95 140.35,207.51 140.75,207.05 141.15,206.59 141.54,206.11 141.94,205.61 142.34,205.11 142.73,204.6 143.13,204.08 143.53,203.54 143.92,203 144.32,202.45 144.72,201.88 145.12,201.3 145.51,200.72 145.91,200.12 146.31,199.51 146.7,198.9 147.1,198.27 147.5,197.63 147.89,196.99 148.29,196.33 148.69,195.68 149.08,195.02 149.48,194.36 149.88,193.71 150.27,193.06 150.67,192.41 151.07,191.78 151.46,191.16 151.86,190.55 152.26,189.97 152.65,189.4 153.05,188.85 153.45,188.32 153.85,187.82 154.24,187.33 154.64,186.86 155.04,186.41 155.43,185.99 155.83,185.57 156.23,185.16 156.62,184.77 157.02,184.37 157.42,183.99 157.81,183.6 158.21,183.2 158.61,182.8 159,182.4 159.4,181.98 159.8,181.56 160.19,181.12 160.59,180.68 160.99,180.23 161.38,179.78 161.78,179.32 162.18,178.87 162.58,178.41 162.97,177.96 163.37,177.51 163.77,177.08 164.16,176.66 164.56,176.25 164.96,175.85 165.35,175.48 165.75,175.12 166.15,174.78 166.54,174.46 166.94,174.15 167.34,173.87 167.73,173.6 168.13,173.34 168.53,173.1 168.92,172.87 169.32,172.66 169.72,172.45 170.11,172.25 170.51,172.05 170.91,171.86 171.31,171.67 171.7,171.49 172.1,171.31 172.5,171.13 172.89,170.94 173.29,170.76 173.69,170.58 174.08,170.4 174.48,170.22 174.88,170.04 175.27,169.86 175.67,169.68 176.07,169.5 176.46,169.33 176.86,169.16 177.26,169 177.65,168.84 178.05,168.68 178.45,168.53 178.84,168.39 179.24,168.25 179.64,168.13 180.04,168.01 180.43,167.89 180.83,167.78 181.23,167.67 181.62,167.56 182.02,167.46 182.42,167.34 182.81,167.22 183.21,167.09 183.61,166.95 184,166.79 184.4,166.61 184.8,166.4 185.19,166.16 185.59,165.89 185.99,165.58 186.38,165.24 186.78,164.86 187.18,164.44 187.57,163.98 187.97,163.48 188.37,162.95 188.77,162.39 189.16,161.8 189.56,161.19 189.96,160.55 190.35,159.9 190.75,159.23 191.15,158.56 191.54,157.88 191.94,157.2 192.34,156.51 192.73,155.83 193.13,155.16 193.53,154.49 193.92,153.82 194.32,153.15 194.72,152.48 195.11,151.81 195.51,151.14 195.91,150.46 196.3,149.77 196.7,149.07 197.1,148.35 197.5,147.61 197.89,146.86 198.29,146.09 198.69,145.3 199.08,144.49 199.48,143.66 199.88,142.82 200.27,141.96 200.67,141.1 201.07,140.22 201.46,139.34 201.86,138.46 202.26,137.59 202.65,136.72 203.05,135.86 203.45,135.01 203.84,134.18 204.24,133.37 204.64,132.57 205.03,131.79 205.43,131.03 205.83,130.28 206.23,129.55 206.62,128.83 207.02,128.13 207.42,127.43 207.81,126.73 208.21,126.04 208.61,125.34 209,124.65 209.4,123.95 209.8,123.24 210.19,122.53 210.59,121.81 210.99,121.08 211.38,120.35 211.78,119.61 212.18,118.87 212.57,118.12 212.97,117.38 213.37,116.63 213.76,115.89 214.16,115.15 214.56,114.41 214.96,113.69 215.35,112.97 215.75,112.27 216.15,111.57 216.54,110.89 216.94,110.22 217.34,109.56 217.73,108.92 218.13,108.29 218.53,107.67 218.92,107.06 219.32,106.46 219.72,105.86 220.11,105.28 220.51,104.7 220.91,104.12 221.3,103.54 221.7,102.97 222.1,102.39 222.49,101.81 222.89,101.23 223.29,100.64 223.69,100.04 224.08,99.44 224.48,98.82 224.88,98.2 225.27,97.57 225.67,96.92 226.07,96.27 226.46,95.61 226.86,94.94 227.26,94.26 227.65,93.57 228.05,92.89 228.45,92.2 228.84,91.51 229.24,90.83 229.64,90.16 230.03,89.49 230.43,88.83 230.83,88.19 231.22,87.57 231.62,86.96 232.02,86.37 232.42,85.8 232.81,85.24 233.21,84.71 233.61,84.19 234,83.7 234.4,83.22 234.8,82.75 235.19,82.3 235.59,81.85 235.99,81.42 236.38,80.99 236.78,80.56 237.18,80.14 237.57,79.72 237.97,79.29 238.37,78.86 238.76,78.43 239.16,77.99 239.56,77.54 239.95,77.08 240.35,76.61 240.75,76.12 241.15,75.62 241.54,75.11 241.94,74.58 242.34,74.03 242.73,73.46 243.13,72.87 243.53,72.27 243.92,71.64 244.32,71 244.72,70.33 245.11,69.65 245.51,68.95 245.91,68.24 246.3,67.52 246.7,66.79 247.1,66.05 247.49,65.31 247.89,64.57 248.29,63.84 248.68,63.11 249.08,62.4 249.48,61.7 249.88,61.03 250.27,60.38 250.67,59.76 251.07,59.17 251.46,58.61 251.86,58.09 252.26,57.6 252.65,57.16 253.05,56.75 253.45,56.38 253.84,56.04 254.24,55.74 254.64,55.47 255.03,55.23 255.43,55.02 255.83,54.84 256.22,54.69 256.62,54.56 257.02,54.44 257.41,54.35 257.81,54.27 258.21,54.2 258.61,54.15 259,54.11 259.4,54.07 259.8,54.04 260.19,54.02 260.59,54 260.99,53.99 261.38,53.98 261.78,53.97" stroke-dasharray="none" stroke="rgb(31,120,180)" stroke-width="0.75" opacity="1" stroke-opacity="1" fill="none"/>
          </g>
          <g id="Fig:densplot_01.xyplot.lines.group.5.panel.1.1.1">
            <polyline id="Fig:densplot_01.xyplot.lines.group.5.panel.1.1.1.1" points="59.13,54 59.52,54.02 59.92,54.05 60.32,54.08 60.71,54.12 61.11,54.18 61.51,54.25 61.9,54.33 62.3,54.44 62.7,54.58 63.09,54.74 63.49,54.95 63.88,55.2 64.28,55.49 64.68,55.84 65.07,56.25 65.47,56.73 65.87,57.3 66.26,57.96 66.66,58.71 67.06,59.56 67.45,60.51 67.85,61.58 68.25,62.78 68.64,64.11 69.04,65.56 69.43,67.14 69.83,68.83 70.23,70.65 70.62,72.59 71.02,74.65 71.42,76.81 71.81,79.07 72.21,81.41 72.61,83.81 73,86.27 73.4,88.77 73.79,91.31 74.19,93.86 74.59,96.4 74.98,98.93 75.38,101.43 75.78,103.89 76.17,106.3 76.57,108.63 76.97,110.9 77.36,113.09 77.76,115.19 78.15,117.21 78.55,119.14 78.95,120.97 79.34,122.7 79.74,124.33 80.14,125.88 80.53,127.33 80.93,128.71 81.33,130 81.72,131.2 82.12,132.32 82.51,133.38 82.91,134.37 83.31,135.3 83.7,136.17 84.1,136.99 84.5,137.76 84.89,138.49 85.29,139.17 85.69,139.82 86.08,140.43 86.48,141.01 86.87,141.57 87.27,142.1 87.67,142.6 88.06,143.08 88.46,143.55 88.86,144 89.25,144.44 89.65,144.86 90.05,145.27 90.44,145.68 90.84,146.08 91.23,146.47 91.63,146.86 92.03,147.26 92.42,147.65 92.82,148.05 93.22,148.45 93.61,148.85 94.01,149.27 94.41,149.7 94.8,150.13 95.2,150.58 95.59,151.04 95.99,151.52 96.39,152.02 96.78,152.53 97.18,153.06 97.58,153.61 97.97,154.18 98.37,154.77 98.77,155.38 99.16,156.01 99.56,156.66 99.95,157.33 100.35,158.02 100.75,158.72 101.14,159.45 101.54,160.19 101.94,160.94 102.33,161.71 102.73,162.5 103.13,163.29 103.52,164.1 103.92,164.93 104.31,165.77 104.71,166.62 105.11,167.49 105.5,168.37 105.9,169.27 106.3,170.19 106.69,171.13 107.09,172.09 107.49,173.07 107.88,174.06 108.28,175.08 108.67,176.11 109.07,177.17 109.47,178.24 109.86,179.32 110.26,180.42 110.66,181.52 111.05,182.63 111.45,183.74 111.85,184.85 112.24,185.95 112.64,187.05 113.03,188.13 113.43,189.19 113.83,190.24 114.22,191.26 114.62,192.25 115.02,193.22 115.41,194.16 115.81,195.07 116.21,195.96 116.6,196.82 117,197.65 117.39,198.46 117.79,199.25 118.19,200.02 118.58,200.77 118.98,201.51 119.38,202.24 119.77,202.97 120.17,203.69 120.57,204.4 120.96,205.12 121.36,205.83 121.75,206.54 122.15,207.25 122.55,207.96 122.94,208.67 123.34,209.37 123.74,210.06 124.13,210.73 124.53,211.39 124.93,212.03 125.32,212.65 125.72,213.23 126.12,213.79 126.51,214.31 126.91,214.79 127.3,215.24 127.7,215.65 128.1,216.01 128.49,216.33 128.89,216.61 129.29,216.86 129.68,217.07 130.08,217.25 130.48,217.39 130.87,217.5 131.27,217.58 131.66,217.64 132.06,217.68 132.46,217.7 132.85,217.69 133.25,217.66 133.65,217.61 134.04,217.54 134.44,217.45 134.84,217.33 135.23,217.19 135.63,217.02 136.02,216.82 136.42,216.58 136.82,216.32 137.21,216.02 137.61,215.69 138.01,215.33 138.4,214.94 138.8,214.52 139.2,214.07 139.59,213.6 139.99,213.12 140.38,212.61 140.78,212.09 141.18,211.57 141.57,211.04 141.97,210.5 142.37,209.97 142.76,209.44 143.16,208.92 143.56,208.4 143.95,207.89 144.35,207.39 144.74,206.89 145.14,206.39 145.54,205.9 145.93,205.41 146.33,204.91 146.73,204.41 147.12,203.91 147.52,203.39 147.92,202.86 148.31,202.32 148.71,201.76 149.1,201.18 149.5,200.58 149.9,199.96 150.29,199.32 150.69,198.66 151.09,197.98 151.48,197.28 151.88,196.56 152.28,195.82 152.67,195.07 153.07,194.3 153.46,193.52 153.86,192.73 154.26,191.93 154.65,191.13 155.05,190.33 155.45,189.53 155.84,188.73 156.24,187.94 156.64,187.16 157.03,186.39 157.43,185.64 157.82,184.9 158.22,184.19 158.62,183.49 159.01,182.82 159.41,182.18 159.81,181.56 160.2,180.96 160.6,180.4 161,179.87 161.39,179.36 161.79,178.89 162.18,178.44 162.58,178.01 162.98,177.62 163.37,177.25 163.77,176.9 164.17,176.58 164.56,176.27 164.96,175.98 165.36,175.71 165.75,175.46 166.15,175.21 166.54,174.98 166.94,174.76 167.34,174.54 167.73,174.34 168.13,174.13 168.53,173.94 168.92,173.75 169.32,173.56 169.72,173.38 170.11,173.21 170.51,173.04 170.9,172.88 171.3,172.72 171.7,172.57 172.09,172.43 172.49,172.3 172.89,172.17 173.28,172.05 173.68,171.93 174.08,171.82 174.47,171.71 174.87,171.6 175.26,171.49 175.66,171.39 176.06,171.27 176.45,171.16 176.85,171.03 177.25,170.9 177.64,170.75 178.04,170.59 178.44,170.41 178.83,170.22 179.23,170.01 179.62,169.77 180.02,169.51 180.42,169.24 180.81,168.93 181.21,168.61 181.61,168.26 182,167.88 182.4,167.48 182.8,167.06 183.19,166.61 183.59,166.15 183.99,165.66 184.38,165.16 184.78,164.64 185.17,164.1 185.57,163.55 185.97,163 186.36,162.43 186.76,161.87 187.16,161.3 187.55,160.73 187.95,160.16 188.35,159.59 188.74,159.03 189.14,158.48 189.53,157.93 189.93,157.4 190.33,156.87 190.72,156.35 191.12,155.83 191.52,155.33 191.91,154.83 192.31,154.33 192.71,153.84 193.1,153.35 193.5,152.86 193.89,152.36 194.29,151.86 194.69,151.36 195.08,150.85 195.48,150.33 195.88,149.79 196.27,149.25 196.67,148.69 197.07,148.11 197.46,147.52 197.86,146.91 198.25,146.28 198.65,145.64 199.05,144.98 199.44,144.3 199.84,143.61 200.24,142.9 200.63,142.19 201.03,141.46 201.43,140.72 201.82,139.97 202.22,139.21 202.61,138.44 203.01,137.67 203.41,136.9 203.8,136.12 204.2,135.33 204.6,134.54 204.99,133.75 205.39,132.95 205.79,132.14 206.18,131.33 206.58,130.51 206.97,129.68 207.37,128.85 207.77,128.01 208.16,127.15 208.56,126.29 208.96,125.43 209.35,124.55 209.75,123.67 210.15,122.78 210.54,121.9 210.94,121.01 211.33,120.12 211.73,119.24 212.13,118.36 212.52,117.49 212.92,116.63 213.32,115.79 213.71,114.96 214.11,114.15 214.51,113.35 214.9,112.57 215.3,111.82 215.69,111.08 216.09,110.35 216.49,109.65 216.88,108.95 217.28,108.27 217.68,107.6 218.07,106.94 218.47,106.29 218.87,105.64 219.26,104.99 219.66,104.35 220.05,103.7 220.45,103.06 220.85,102.41 221.24,101.75 221.64,101.1 222.04,100.44 222.43,99.77 222.83,99.1 223.23,98.43 223.62,97.76 224.02,97.09 224.41,96.41 224.81,95.74 225.21,95.07 225.6,94.41 226,93.74 226.4,93.09 226.79,92.44 227.19,91.79 227.59,91.15 227.98,90.52 228.38,89.9 228.77,89.29 229.17,88.69 229.57,88.1 229.96,87.51 230.36,86.94 230.76,86.38 231.15,85.83 231.55,85.29 231.95,84.76 232.34,84.24 232.74,83.74 233.13,83.24 233.53,82.76 233.93,82.29 234.32,81.84 234.72,81.39 235.12,80.96 235.51,80.54 235.91,80.13 236.31,79.73 236.7,79.34 237.1,78.96 237.5,78.58 237.89,78.22 238.29,77.85 238.68,77.49 239.08,77.14 239.48,76.78 239.87,76.42 240.27,76.05 240.67,75.68 241.06,75.3 241.46,74.9 241.86,74.49 242.25,74.06 242.65,73.61 243.04,73.14 243.44,72.64 243.84,72.12 244.23,71.58 244.63,71 245.03,70.39 245.42,69.76 245.82,69.1 246.22,68.42 246.61,67.72 247.01,66.99 247.4,66.26 247.8,65.51 248.2,64.76 248.59,64.01 248.99,63.27 249.39,62.53 249.78,61.81 250.18,61.11 250.58,60.44 250.97,59.8 251.37,59.18 251.76,58.61 252.16,58.07 252.56,57.57 252.95,57.11 253.35,56.69 253.75,56.31 254.14,55.97 254.54,55.67 254.94,55.4 255.33,55.16 255.73,54.96 256.12,54.78 256.52,54.64 256.92,54.51 257.31,54.4 257.71,54.31 258.11,54.24 258.5,54.18 258.9,54.13 259.3,54.09 259.69,54.06 260.09,54.03 260.48,54.01 260.88,53.99 261.28,53.98 261.67,53.97" stroke-dasharray="none" stroke="rgb(31,120,180)" stroke-width="0.75" opacity="1" stroke-opacity="1" fill="none"/>
          </g>
          <g id="Fig:densplot_01.xyplot.lines.group.6.panel.1.1.1">
            <polyline id="Fig:densplot_01.xyplot.lines.group.6.panel.1.1.1.1" points="59.12,54 59.51,54.01 59.91,54.03 60.31,54.06 60.7,54.1 61.1,54.15 61.5,54.21 61.89,54.29 62.29,54.39 62.69,54.51 63.08,54.66 63.48,54.84 63.87,55.07 64.27,55.33 64.67,55.65 65.06,56.02 65.46,56.46 65.86,56.99 66.25,57.59 66.65,58.28 67.04,59.06 67.44,59.95 67.84,60.94 68.23,62.05 68.63,63.29 69.03,64.65 69.42,66.14 69.82,67.74 70.22,69.46 70.61,71.3 71.01,73.26 71.4,75.34 71.8,77.51 72.2,79.77 72.59,82.1 72.99,84.5 73.39,86.96 73.78,89.46 74.18,91.99 74.57,94.54 74.97,97.08 75.37,99.61 75.76,102.12 76.16,104.6 76.56,107.03 76.95,109.41 77.35,111.72 77.75,113.96 78.14,116.14 78.54,118.24 78.93,120.25 79.33,122.17 79.73,124.01 80.12,125.76 80.52,127.42 80.92,129 81.31,130.5 81.71,131.91 82.1,133.23 82.5,134.46 82.9,135.62 83.29,136.71 83.69,137.72 84.09,138.66 84.48,139.54 84.88,140.34 85.28,141.08 85.67,141.76 86.07,142.39 86.46,142.97 86.86,143.51 87.26,144 87.65,144.45 88.05,144.87 88.45,145.26 88.84,145.62 89.24,145.97 89.63,146.3 90.03,146.62 90.43,146.93 90.82,147.25 91.22,147.56 91.62,147.88 92.01,148.2 92.41,148.54 92.8,148.88 93.2,149.25 93.6,149.63 93.99,150.02 94.39,150.43 94.79,150.86 95.18,151.31 95.58,151.79 95.98,152.28 96.37,152.79 96.77,153.32 97.16,153.88 97.56,154.45 97.96,155.05 98.35,155.67 98.75,156.32 99.15,157 99.54,157.7 99.94,158.42 100.33,159.17 100.73,159.94 101.13,160.75 101.52,161.57 101.92,162.42 102.32,163.29 102.71,164.17 103.11,165.07 103.51,165.99 103.9,166.91 104.3,167.85 104.69,168.78 105.09,169.73 105.49,170.67 105.88,171.62 106.28,172.56 106.68,173.5 107.07,174.43 107.47,175.36 107.86,176.29 108.26,177.21 108.66,178.13 109.05,179.04 109.45,179.95 109.85,180.86 110.24,181.76 110.64,182.66 111.04,183.55 111.43,184.44 111.83,185.33 112.22,186.21 112.62,187.09 113.02,187.96 113.41,188.83 113.81,189.7 114.21,190.56 114.6,191.41 115,192.26 115.39,193.11 115.79,193.96 116.19,194.8 116.58,195.65 116.98,196.5 117.38,197.35 117.77,198.2 118.17,199.06 118.57,199.92 118.96,200.79 119.36,201.67 119.75,202.55 120.15,203.44 120.55,204.33 120.94,205.23 121.34,206.12 121.74,207.01 122.13,207.89 122.53,208.77 122.92,209.63 123.32,210.47 123.72,211.29 124.11,212.08 124.51,212.85 124.91,213.59 125.3,214.28 125.7,214.93 126.1,215.54 126.49,216.1 126.89,216.61 127.28,217.08 127.68,217.49 128.08,217.84 128.47,218.14 128.87,218.39 129.27,218.58 129.66,218.73 130.06,218.83 130.45,218.88 130.85,218.89 131.25,218.85 131.64,218.78 132.04,218.67 132.44,218.54 132.83,218.38 133.23,218.2 133.63,218 134.02,217.78 134.42,217.55 134.81,217.3 135.21,217.05 135.61,216.8 136,216.53 136.4,216.26 136.8,215.98 137.19,215.7 137.59,215.41 137.98,215.12 138.38,214.81 138.78,214.49 139.17,214.16 139.57,213.82 139.97,213.45 140.36,213.07 140.76,212.67 141.16,212.24 141.55,211.79 141.95,211.31 142.34,210.81 142.74,210.28 143.14,209.73 143.53,209.16 143.93,208.56 144.33,207.94 144.72,207.3 145.12,206.64 145.51,205.97 145.91,205.29 146.31,204.61 146.7,203.91 147.1,203.21 147.5,202.51 147.89,201.8 148.29,201.1 148.69,200.4 149.08,199.71 149.48,199.02 149.87,198.33 150.27,197.64 150.67,196.96 151.06,196.28 151.46,195.6 151.86,194.93 152.25,194.26 152.65,193.58 153.04,192.91 153.44,192.24 153.84,191.56 154.23,190.89 154.63,190.21 155.03,189.53 155.42,188.85 155.82,188.17 156.22,187.49 156.61,186.81 157.01,186.13 157.4,185.46 157.8,184.79 158.2,184.12 158.59,183.47 158.99,182.82 159.39,182.19 159.78,181.57 160.18,180.96 160.57,180.38 160.97,179.82 161.37,179.28 161.76,178.77 162.16,178.28 162.56,177.81 162.95,177.38 163.35,176.97 163.75,176.59 164.14,176.23 164.54,175.89 164.93,175.58 165.33,175.28 165.73,175 166.12,174.74 166.52,174.49 166.92,174.25 167.31,174.01 167.71,173.78 168.1,173.56 168.5,173.33 168.9,173.11 169.29,172.88 169.69,172.65 170.09,172.43 170.48,172.2 170.88,171.97 171.28,171.74 171.67,171.51 172.07,171.29 172.46,171.07 172.86,170.87 173.26,170.67 173.65,170.48 174.05,170.3 174.45,170.14 174.84,170 175.24,169.87 175.63,169.76 176.03,169.67 176.43,169.58 176.82,169.52 177.22,169.46 177.62,169.4 178.01,169.35 178.41,169.3 178.81,169.24 179.2,169.17 179.6,169.08 179.99,168.96 180.39,168.82 180.79,168.65 181.18,168.44 181.58,168.19 181.98,167.91 182.37,167.58 182.77,167.21 183.16,166.8 183.56,166.34 183.96,165.86 184.35,165.34 184.75,164.79 185.15,164.2 185.54,163.6 185.94,162.98 186.34,162.35 186.73,161.7 187.13,161.06 187.52,160.4 187.92,159.75 188.32,159.1 188.71,158.46 189.11,157.83 189.51,157.2 189.9,156.58 190.3,155.96 190.69,155.36 191.09,154.77 191.49,154.18 191.88,153.6 192.28,153.02 192.68,152.45 193.07,151.89 193.47,151.32 193.87,150.76 194.26,150.2 194.66,149.64 195.05,149.07 195.45,148.51 195.85,147.93 196.24,147.36 196.64,146.77 197.04,146.18 197.43,145.57 197.83,144.96 198.22,144.34 198.62,143.7 199.02,143.05 199.41,142.39 199.81,141.71 200.21,141.03 200.6,140.32 201,139.61 201.4,138.88 201.79,138.14 202.19,137.4 202.58,136.64 202.98,135.88 203.38,135.12 203.77,134.35 204.17,133.57 204.57,132.8 204.96,132.03 205.36,131.25 205.75,130.48 206.15,129.71 206.55,128.95 206.94,128.18 207.34,127.41 207.74,126.65 208.13,125.89 208.53,125.12 208.92,124.36 209.32,123.6 209.72,122.83 210.11,122.06 210.51,121.29 210.91,120.52 211.3,119.75 211.7,118.97 212.1,118.2 212.49,117.43 212.89,116.66 213.28,115.9 213.68,115.13 214.08,114.38 214.47,113.63 214.87,112.89 215.27,112.17 215.66,111.45 216.06,110.74 216.45,110.05 216.85,109.37 217.25,108.7 217.64,108.05 218.04,107.41 218.44,106.78 218.83,106.17 219.23,105.56 219.63,104.97 220.02,104.38 220.42,103.8 220.81,103.23 221.21,102.66 221.61,102.1 222,101.53 222.4,100.97 222.8,100.41 223.19,99.85 223.59,99.28 223.98,98.7 224.38,98.13 224.78,97.54 225.17,96.95 225.57,96.35 225.97,95.75 226.36,95.13 226.76,94.51 227.16,93.88 227.55,93.25 227.95,92.61 228.34,91.97 228.74,91.33 229.14,90.68 229.53,90.04 229.93,89.4 230.33,88.76 230.72,88.13 231.12,87.51 231.51,86.9 231.91,86.3 232.31,85.71 232.7,85.14 233.1,84.58 233.5,84.04 233.89,83.52 234.29,83.01 234.69,82.52 235.08,82.05 235.48,81.59 235.87,81.15 236.27,80.72 236.67,80.31 237.06,79.9 237.46,79.5 237.86,79.11 238.25,78.72 238.65,78.34 239.04,77.95 239.44,77.55 239.84,77.15 240.23,76.74 240.63,76.31 241.03,75.87 241.42,75.42 241.82,74.94 242.22,74.44 242.61,73.91 243.01,73.35 243.4,72.77 243.8,72.17 244.2,71.53 244.59,70.87 244.99,70.18 245.39,69.47 245.78,68.73 246.18,67.98 246.57,67.21 246.97,66.43 247.37,65.65 247.76,64.86 248.16,64.08 248.56,63.31 248.95,62.55 249.35,61.82 249.75,61.1 250.14,60.41 250.54,59.76 250.93,59.15 251.33,58.57 251.73,58.03 252.12,57.53 252.52,57.06 252.92,56.65 253.31,56.27 253.71,55.94 254.1,55.64 254.5,55.37 254.9,55.14 255.29,54.94 255.69,54.77 256.09,54.62 256.48,54.5 256.88,54.39 257.28,54.3 257.67,54.23 258.07,54.17 258.46,54.12 258.86,54.08 259.26,54.05 259.65,54.03 260.05,54.01 260.45,53.99 260.84,53.98 261.24,53.97 261.63,53.97" stroke-dasharray="none" stroke="rgb(31,120,180)" stroke-width="0.75" opacity="1" stroke-opacity="1" fill="none"/>
          </g>
          <g id="Fig:densplot_01.xyplot.lines.group.7.panel.1.1.1">
            <polyline id="Fig:densplot_01.xyplot.lines.group.7.panel.1.1.1.1" points="59.08,54.01 59.48,54.03 59.88,54.06 60.27,54.09 60.67,54.14 61.07,54.2 61.46,54.28 61.86,54.37 62.26,54.49 62.65,54.63 63.05,54.81 63.45,55.03 63.84,55.3 64.24,55.62 64.64,55.99 65.03,56.43 65.43,56.95 65.83,57.56 66.22,58.26 66.62,59.07 67.02,59.98 67.41,61 67.81,62.14 68.2,63.41 68.6,64.83 69,66.38 69.39,68.06 69.79,69.87 70.19,71.8 70.58,73.86 70.98,76.04 71.38,78.34 71.77,80.73 72.17,83.21 72.57,85.75 72.96,88.36 73.36,91 73.76,93.67 74.15,96.35 74.55,99.03 74.95,101.68 75.34,104.29 75.74,106.86 76.14,109.37 76.53,111.79 76.93,114.13 77.32,116.38 77.72,118.54 78.12,120.59 78.51,122.54 78.91,124.39 79.31,126.11 79.7,127.72 80.1,129.24 80.5,130.65 80.89,131.96 81.29,133.18 81.69,134.3 82.08,135.33 82.48,136.28 82.88,137.16 83.27,137.97 83.67,138.72 84.07,139.41 84.46,140.05 84.86,140.64 85.26,141.18 85.65,141.69 86.05,142.17 86.45,142.63 86.84,143.06 87.24,143.47 87.63,143.86 88.03,144.23 88.43,144.6 88.82,144.96 89.22,145.32 89.62,145.67 90.01,146.02 90.41,146.37 90.81,146.73 91.2,147.1 91.6,147.48 92,147.86 92.39,148.26 92.79,148.68 93.19,149.12 93.58,149.57 93.98,150.05 94.38,150.55 94.77,151.07 95.17,151.61 95.57,152.17 95.96,152.76 96.36,153.37 96.75,153.99 97.15,154.63 97.55,155.29 97.94,155.96 98.34,156.64 98.74,157.32 99.13,158.01 99.53,158.7 99.93,159.4 100.32,160.09 100.72,160.78 101.12,161.47 101.51,162.14 101.91,162.82 102.31,163.49 102.7,164.15 103.1,164.8 103.5,165.46 103.89,166.1 104.29,166.75 104.69,167.4 105.08,168.06 105.48,168.72 105.87,169.39 106.27,170.08 106.67,170.78 107.06,171.5 107.46,172.24 107.86,173 108.25,173.79 108.65,174.61 109.05,175.46 109.44,176.34 109.84,177.25 110.24,178.2 110.63,179.17 111.03,180.17 111.43,181.19 111.82,182.25 112.22,183.32 112.62,184.42 113.01,185.52 113.41,186.64 113.81,187.76 114.2,188.88 114.6,190 115,191.11 115.39,192.21 115.79,193.29 116.18,194.35 116.58,195.39 116.98,196.4 117.37,197.38 117.77,198.32 118.17,199.24 118.56,200.12 118.96,200.97 119.36,201.78 119.75,202.56 120.15,203.3 120.55,204 120.94,204.67 121.34,205.31 121.74,205.91 122.13,206.48 122.53,207.01 122.93,207.51 123.32,207.97 123.72,208.4 124.12,208.8 124.51,209.16 124.91,209.49 125.3,209.8 125.7,210.06 126.1,210.3 126.49,210.52 126.89,210.7 127.29,210.87 127.68,211.01 128.08,211.12 128.48,211.22 128.87,211.3 129.27,211.37 129.67,211.43 130.06,211.47 130.46,211.51 130.86,211.53 131.25,211.54 131.65,211.55 132.05,211.55 132.44,211.54 132.84,211.53 133.24,211.5 133.63,211.47 134.03,211.43 134.43,211.37 134.82,211.31 135.22,211.23 135.61,211.14 136.01,211.04 136.41,210.92 136.8,210.78 137.2,210.63 137.6,210.47 137.99,210.28 138.39,210.09 138.79,209.87 139.18,209.64 139.58,209.38 139.98,209.11 140.37,208.82 140.77,208.52 141.17,208.19 141.56,207.85 141.96,207.49 142.36,207.11 142.75,206.72 143.15,206.31 143.55,205.88 143.94,205.45 144.34,205 144.73,204.54 145.13,204.07 145.53,203.59 145.92,203.11 146.32,202.62 146.72,202.13 147.11,201.63 147.51,201.14 147.91,200.64 148.3,200.14 148.7,199.65 149.1,199.16 149.49,198.67 149.89,198.18 150.29,197.71 150.68,197.24 151.08,196.77 151.48,196.31 151.87,195.86 152.27,195.42 152.67,194.98 153.06,194.56 153.46,194.14 153.85,193.73 154.25,193.32 154.65,192.93 155.04,192.53 155.44,192.15 155.84,191.77 156.23,191.39 156.63,191.01 157.03,190.63 157.42,190.24 157.82,189.86 158.22,189.47 158.61,189.07 159.01,188.66 159.41,188.24 159.8,187.82 160.2,187.38 160.6,186.93 160.99,186.47 161.39,185.99 161.79,185.51 162.18,185.01 162.58,184.51 162.98,184 163.37,183.48 163.77,182.96 164.16,182.44 164.56,181.92 164.96,181.4 165.35,180.89 165.75,180.39 166.15,179.89 166.54,179.42 166.94,178.95 167.34,178.5 167.73,178.07 168.13,177.66 168.53,177.27 168.92,176.9 169.32,176.55 169.72,176.22 170.11,175.91 170.51,175.63 170.91,175.35 171.3,175.1 171.7,174.86 172.1,174.64 172.49,174.43 172.89,174.22 173.28,174.03 173.68,173.84 174.08,173.65 174.47,173.47 174.87,173.29 175.27,173.11 175.66,172.92 176.06,172.74 176.46,172.55 176.85,172.36 177.25,172.16 177.65,171.96 178.04,171.75 178.44,171.54 178.84,171.32 179.23,171.09 179.63,170.85 180.03,170.61 180.42,170.35 180.82,170.08 181.22,169.8 181.61,169.5 182.01,169.18 182.41,168.84 182.8,168.48 183.2,168.09 183.59,167.68 183.99,167.24 184.39,166.78 184.78,166.28 185.18,165.76 185.58,165.21 185.97,164.63 186.37,164.03 186.77,163.4 187.16,162.76 187.56,162.1 187.96,161.43 188.35,160.75 188.75,160.06 189.15,159.37 189.54,158.68 189.94,157.98 190.34,157.29 190.73,156.61 191.13,155.93 191.53,155.25 191.92,154.58 192.32,153.91 192.71,153.24 193.11,152.58 193.51,151.91 193.9,151.23 194.3,150.55 194.7,149.86 195.09,149.16 195.49,148.45 195.89,147.73 196.28,147 196.68,146.26 197.08,145.51 197.47,144.75 197.87,143.98 198.27,143.21 198.66,142.43 199.06,141.65 199.46,140.88 199.85,140.1 200.25,139.33 200.65,138.57 201.04,137.81 201.44,137.06 201.83,136.33 202.23,135.59 202.63,134.87 203.02,134.16 203.42,133.45 203.82,132.74 204.21,132.04 204.61,131.34 205.01,130.64 205.4,129.94 205.8,129.23 206.2,128.52 206.59,127.8 206.99,127.07 207.39,126.33 207.78,125.59 208.18,124.83 208.58,124.07 208.97,123.3 209.37,122.52 209.77,121.73 210.16,120.94 210.56,120.15 210.96,119.36 211.35,118.57 211.75,117.78 212.14,117 212.54,116.22 212.94,115.45 213.33,114.69 213.73,113.94 214.13,113.2 214.52,112.47 214.92,111.76 215.32,111.05 215.71,110.36 216.11,109.69 216.51,109.02 216.9,108.37 217.3,107.73 217.7,107.1 218.09,106.49 218.49,105.89 218.89,105.3 219.28,104.72 219.68,104.15 220.08,103.59 220.47,103.04 220.87,102.5 221.26,101.97 221.66,101.44 222.06,100.91 222.45,100.39 222.85,99.86 223.25,99.34 223.64,98.8 224.04,98.26 224.44,97.72 224.83,97.16 225.23,96.59 225.63,96.01 226.02,95.42 226.42,94.81 226.82,94.18 227.21,93.55 227.61,92.9 228.01,92.23 228.4,91.56 228.8,90.87 229.2,90.18 229.59,89.48 229.99,88.78 230.39,88.07 230.78,87.37 231.18,86.68 231.57,86 231.97,85.32 232.37,84.66 232.76,84.02 233.16,83.39 233.56,82.79 233.95,82.2 234.35,81.65 234.75,81.11 235.14,80.6 235.54,80.11 235.94,79.65 236.33,79.21 236.73,78.79 237.13,78.39 237.52,78.01 237.92,77.64 238.32,77.28 238.71,76.93 239.11,76.59 239.51,76.25 239.9,75.9 240.3,75.55 240.69,75.2 241.09,74.83 241.49,74.44 241.88,74.04 242.28,73.62 242.68,73.17 243.07,72.7 243.47,72.21 243.87,71.69 244.26,71.14 244.66,70.57 245.06,69.96 245.45,69.34 245.85,68.68 246.25,68.01 246.64,67.32 247.04,66.61 247.44,65.89 247.83,65.16 248.23,64.43 248.63,63.71 249.02,62.98 249.42,62.27 249.81,61.57 250.21,60.9 250.61,60.25 251,59.63 251.4,59.04 251.8,58.48 252.19,57.96 252.59,57.47 252.99,57.03 253.38,56.62 253.78,56.26 254.18,55.93 254.57,55.63 254.97,55.37 255.37,55.14 255.76,54.94 256.16,54.77 256.56,54.62 256.95,54.5 257.35,54.39 257.75,54.3 258.14,54.23 258.54,54.17 258.94,54.12 259.33,54.09 259.73,54.05 260.12,54.03 260.52,54.01 260.92,53.99 261.31,53.98 261.71,53.97" stroke-dasharray="none" stroke="rgb(31,120,180)" stroke-width="0.75" opacity="1" stroke-opacity="1" fill="none"/>
          </g>
          <g id="Fig:densplot_01.xyplot.lines.group.8.panel.1.1.1">
            <polyline id="Fig:densplot_01.xyplot.lines.group.8.panel.1.1.1.1" points="59.04,53.99 59.44,54.01 59.83,54.03 60.23,54.06 60.63,54.1 61.02,54.14 61.42,54.21 61.82,54.28 62.21,54.38 62.61,54.5 63.01,54.64 63.4,54.82 63.8,55.05 64.2,55.31 64.59,55.63 64.99,56.01 65.39,56.45 65.78,56.96 66.18,57.58 66.58,58.28 66.97,59.08 67.37,59.99 67.77,61.01 68.16,62.14 68.56,63.41 68.96,64.83 69.35,66.37 69.75,68.04 70.15,69.84 70.54,71.77 70.94,73.82 71.34,76 71.73,78.3 72.13,80.68 72.53,83.16 72.92,85.7 73.32,88.3 73.72,90.95 74.11,93.62 74.51,96.31 74.91,99 75.3,101.67 75.7,104.3 76.1,106.9 76.5,109.44 76.89,111.91 77.29,114.29 77.69,116.6 78.08,118.82 78.48,120.96 78.88,123 79.27,124.94 79.67,126.78 80.07,128.52 80.46,130.17 80.86,131.73 81.26,133.2 81.65,134.59 82.05,135.9 82.45,137.12 82.84,138.27 83.24,139.35 83.64,140.36 84.03,141.32 84.43,142.21 84.83,143.04 85.22,143.81 85.62,144.54 86.02,145.21 86.41,145.84 86.81,146.42 87.21,146.97 87.6,147.47 88,147.94 88.4,148.37 88.79,148.78 89.19,149.16 89.59,149.52 89.98,149.86 90.38,150.18 90.78,150.49 91.17,150.79 91.57,151.09 91.97,151.38 92.36,151.67 92.76,151.96 93.16,152.25 93.55,152.55 93.95,152.86 94.35,153.17 94.74,153.5 95.14,153.84 95.54,154.19 95.94,154.56 96.33,154.94 96.73,155.34 97.13,155.76 97.52,156.2 97.92,156.66 98.32,157.14 98.71,157.64 99.11,158.17 99.51,158.73 99.9,159.31 100.3,159.92 100.7,160.55 101.09,161.22 101.49,161.92 101.89,162.64 102.28,163.39 102.68,164.17 103.08,164.97 103.47,165.79 103.87,166.65 104.27,167.52 104.66,168.41 105.06,169.32 105.46,170.24 105.85,171.18 106.25,172.12 106.65,173.08 107.04,174.04 107.44,175 107.84,175.96 108.23,176.92 108.63,177.88 109.03,178.83 109.42,179.78 109.82,180.71 110.22,181.64 110.61,182.55 111.01,183.46 111.41,184.35 111.8,185.22 112.2,186.08 112.6,186.93 112.99,187.76 113.39,188.59 113.79,189.4 114.18,190.2 114.58,190.99 114.98,191.77 115.38,192.55 115.77,193.32 116.17,194.09 116.57,194.86 116.96,195.63 117.36,196.4 117.76,197.17 118.15,197.94 118.55,198.71 118.95,199.49 119.34,200.26 119.74,201.04 120.14,201.8 120.53,202.57 120.93,203.32 121.33,204.06 121.72,204.78 122.12,205.49 122.52,206.17 122.91,206.83 123.31,207.46 123.71,208.05 124.1,208.61 124.5,209.14 124.9,209.63 125.29,210.07 125.69,210.47 126.09,210.83 126.48,211.15 126.88,211.42 127.28,211.65 127.67,211.84 128.07,211.99 128.47,212.09 128.86,212.15 129.26,212.18 129.66,212.17 130.05,212.12 130.45,212.04 130.85,211.92 131.24,211.76 131.64,211.58 132.04,211.37 132.43,211.14 132.83,210.88 133.23,210.59 133.62,210.29 134.02,209.96 134.42,209.62 134.82,209.26 135.21,208.9 135.61,208.52 136.01,208.13 136.4,207.74 136.8,207.35 137.2,206.96 137.59,206.56 137.99,206.18 138.39,205.79 138.78,205.42 139.18,205.05 139.58,204.7 139.97,204.36 140.37,204.03 140.77,203.72 141.16,203.42 141.56,203.13 141.96,202.87 142.35,202.62 142.75,202.38 143.15,202.16 143.54,201.95 143.94,201.74 144.34,201.54 144.73,201.34 145.13,201.15 145.53,200.94 145.92,200.73 146.32,200.51 146.72,200.27 147.11,200.02 147.51,199.74 147.91,199.44 148.3,199.11 148.7,198.76 149.1,198.39 149.49,197.99 149.89,197.56 150.29,197.1 150.68,196.62 151.08,196.12 151.48,195.59 151.87,195.05 152.27,194.49 152.67,193.91 153.06,193.32 153.46,192.72 153.86,192.12 154.26,191.5 154.65,190.88 155.05,190.25 155.45,189.62 155.84,188.99 156.24,188.36 156.64,187.73 157.03,187.1 157.43,186.47 157.83,185.84 158.22,185.22 158.62,184.61 159.02,184 159.41,183.39 159.81,182.8 160.21,182.21 160.6,181.63 161,181.07 161.4,180.51 161.79,179.97 162.19,179.45 162.59,178.94 162.98,178.45 163.38,177.97 163.78,177.52 164.17,177.09 164.57,176.68 164.97,176.28 165.36,175.91 165.76,175.56 166.16,175.24 166.55,174.94 166.95,174.65 167.35,174.39 167.74,174.15 168.14,173.92 168.54,173.72 168.93,173.53 169.33,173.36 169.73,173.21 170.12,173.07 170.52,172.94 170.92,172.83 171.31,172.73 171.71,172.65 172.11,172.57 172.51,172.51 172.9,172.45 173.3,172.4 173.7,172.36 174.09,172.32 174.49,172.29 174.89,172.26 175.28,172.23 175.68,172.21 176.08,172.17 176.47,172.14 176.87,172.1 177.27,172.05 177.66,171.99 178.06,171.92 178.46,171.84 178.85,171.74 179.25,171.63 179.65,171.49 180.04,171.34 180.44,171.17 180.84,170.98 181.23,170.77 181.63,170.53 182.03,170.28 182.42,169.99 182.82,169.69 183.22,169.37 183.61,169.02 184.01,168.65 184.41,168.26 184.8,167.85 185.2,167.42 185.6,166.98 185.99,166.51 186.39,166.03 186.79,165.54 187.18,165.03 187.58,164.51 187.98,163.97 188.37,163.42 188.77,162.86 189.17,162.29 189.56,161.71 189.96,161.12 190.36,160.51 190.75,159.9 191.15,159.27 191.55,158.63 191.95,157.99 192.34,157.33 192.74,156.66 193.14,155.98 193.53,155.29 193.93,154.59 194.33,153.88 194.72,153.16 195.12,152.44 195.52,151.71 195.91,150.98 196.31,150.24 196.71,149.5 197.1,148.76 197.5,148.01 197.9,147.27 198.29,146.52 198.69,145.78 199.09,145.03 199.48,144.29 199.88,143.54 200.28,142.8 200.67,142.05 201.07,141.3 201.47,140.54 201.86,139.78 202.26,139.01 202.66,138.23 203.05,137.45 203.45,136.66 203.85,135.86 204.24,135.04 204.64,134.22 205.04,133.39 205.43,132.54 205.83,131.69 206.23,130.83 206.62,129.96 207.02,129.08 207.42,128.2 207.81,127.32 208.21,126.43 208.61,125.54 209,124.65 209.4,123.76 209.8,122.88 210.19,122 210.59,121.12 210.99,120.26 211.39,119.4 211.78,118.55 212.18,117.71 212.58,116.88 212.97,116.06 213.37,115.25 213.77,114.46 214.16,113.68 214.56,112.91 214.96,112.16 215.35,111.42 215.75,110.69 216.15,109.98 216.54,109.28 216.94,108.6 217.34,107.93 217.73,107.28 218.13,106.65 218.53,106.03 218.92,105.42 219.32,104.83 219.72,104.25 220.11,103.69 220.51,103.13 220.91,102.59 221.3,102.06 221.7,101.53 222.1,101.02 222.49,100.5 222.89,99.99 223.29,99.47 223.68,98.96 224.08,98.44 224.48,97.91 224.87,97.38 225.27,96.83 225.67,96.27 226.06,95.7 226.46,95.12 226.86,94.52 227.25,93.9 227.65,93.28 228.05,92.64 228.44,91.98 228.84,91.32 229.24,90.64 229.63,89.96 230.03,89.28 230.43,88.59 230.83,87.9 231.22,87.21 231.62,86.53 232.02,85.86 232.41,85.2 232.81,84.54 233.21,83.91 233.6,83.29 234,82.69 234.4,82.1 234.79,81.54 235.19,81 235.59,80.48 235.98,79.98 236.38,79.5 236.78,79.04 237.17,78.6 237.57,78.18 237.97,77.77 238.36,77.38 238.76,76.99 239.16,76.62 239.55,76.25 239.95,75.88 240.35,75.51 240.74,75.14 241.14,74.76 241.54,74.37 241.93,73.97 242.33,73.55 242.73,73.11 243.12,72.65 243.52,72.16 243.92,71.66 244.31,71.12 244.71,70.55 245.11,69.96 245.5,69.34 245.9,68.7 246.3,68.03 246.69,67.35 247.09,66.64 247.49,65.92 247.88,65.2 248.28,64.47 248.68,63.74 249.08,63.01 249.47,62.3 249.87,61.6 250.27,60.92 250.66,60.27 251.06,59.64 251.46,59.05 251.85,58.49 252.25,57.96 252.65,57.48 253.04,57.03 253.44,56.63 253.84,56.26 254.23,55.93 254.63,55.63 255.03,55.37 255.42,55.14 255.82,54.94 256.22,54.77 256.61,54.63 257.01,54.5 257.41,54.39 257.8,54.31 258.2,54.23 258.6,54.17 258.99,54.13 259.39,54.09 259.79,54.05 260.18,54.03 260.58,54.01 260.98,53.99 261.37,53.98 261.77,53.97" stroke-dasharray="none" stroke="rgb(31,120,180)" stroke-width="0.75" opacity="1" stroke-opacity="1" fill="none"/>
          </g>
          <g id="Fig:densplot_01.xyplot.lines.group.9.panel.1.1.1">
            <polyline id="Fig:densplot_01.xyplot.lines.group.9.panel.1.1.1.1" points="59.23,53.98 59.63,53.99 60.03,54.01 60.42,54.03 60.82,54.06 61.21,54.09 61.61,54.14 62.01,54.19 62.4,54.26 62.8,54.35 63.2,54.47 63.59,54.6 63.99,54.77 64.38,54.97 64.78,55.21 65.18,55.5 65.57,55.84 65.97,56.25 66.36,56.73 66.76,57.27 67.16,57.9 67.55,58.62 67.95,59.42 68.34,60.35 68.74,61.38 69.14,62.53 69.53,63.79 69.93,65.17 70.33,66.66 70.72,68.28 71.12,70.04 71.51,71.92 71.91,73.9 72.31,75.99 72.7,78.18 73.1,80.46 73.49,82.83 73.89,85.28 74.29,87.78 74.68,90.33 75.08,92.91 75.47,95.51 75.87,98.12 76.27,100.73 76.66,103.32 77.06,105.88 77.45,108.4 77.85,110.86 78.25,113.27 78.64,115.61 79.04,117.86 79.44,120.02 79.83,122.1 80.23,124.07 80.62,125.96 81.02,127.74 81.42,129.42 81.81,130.99 82.21,132.45 82.6,133.81 83,135.08 83.4,136.26 83.79,137.34 84.19,138.34 84.58,139.25 84.98,140.08 85.38,140.84 85.77,141.54 86.17,142.19 86.56,142.79 86.96,143.34 87.36,143.85 87.75,144.34 88.15,144.8 88.55,145.25 88.94,145.69 89.34,146.12 89.73,146.55 90.13,146.99 90.53,147.43 90.92,147.88 91.32,148.35 91.71,148.83 92.11,149.33 92.51,149.85 92.9,150.38 93.3,150.94 93.69,151.51 94.09,152.09 94.49,152.7 94.88,153.31 95.28,153.94 95.68,154.59 96.07,155.24 96.47,155.91 96.86,156.59 97.26,157.27 97.66,157.97 98.05,158.68 98.45,159.4 98.84,160.13 99.24,160.87 99.64,161.62 100.03,162.39 100.43,163.17 100.82,163.96 101.22,164.76 101.62,165.58 102.01,166.41 102.41,167.24 102.8,168.09 103.2,168.94 103.6,169.79 103.99,170.64 104.39,171.5 104.79,172.34 105.18,173.18 105.58,174.01 105.97,174.83 106.37,175.64 106.77,176.43 107.16,177.21 107.56,177.98 107.95,178.74 108.35,179.49 108.75,180.22 109.14,180.96 109.54,181.68 109.93,182.41 110.33,183.14 110.73,183.88 111.12,184.62 111.52,185.37 111.92,186.13 112.31,186.91 112.71,187.69 113.1,188.49 113.5,189.31 113.9,190.13 114.29,190.97 114.69,191.82 115.08,192.68 115.48,193.54 115.88,194.41 116.27,195.28 116.67,196.15 117.06,197.01 117.46,197.87 117.86,198.73 118.25,199.57 118.65,200.4 119.04,201.21 119.44,202.01 119.84,202.79 120.23,203.56 120.63,204.31 121.03,205.03 121.42,205.74 121.82,206.44 122.21,207.11 122.61,207.76 123.01,208.4 123.4,209.01 123.8,209.61 124.19,210.19 124.59,210.75 124.99,211.29 125.38,211.81 125.78,212.3 126.17,212.77 126.57,213.21 126.97,213.62 127.36,214 127.76,214.35 128.15,214.67 128.55,214.94 128.95,215.18 129.34,215.39 129.74,215.56 130.14,215.69 130.53,215.79 130.93,215.84 131.32,215.86 131.72,215.85 132.12,215.81 132.51,215.74 132.91,215.64 133.3,215.52 133.7,215.36 134.1,215.19 134.49,215 134.89,214.79 135.28,214.56 135.68,214.32 136.08,214.07 136.47,213.79 136.87,213.51 137.27,213.22 137.66,212.92 138.06,212.61 138.45,212.3 138.85,211.98 139.25,211.65 139.64,211.32 140.04,210.99 140.43,210.65 140.83,210.31 141.23,209.96 141.62,209.61 142.02,209.25 142.41,208.88 142.81,208.5 143.21,208.12 143.6,207.72 144,207.32 144.39,206.9 144.79,206.47 145.19,206.02 145.58,205.56 145.98,205.09 146.38,204.61 146.77,204.12 147.17,203.61 147.56,203.09 147.96,202.56 148.36,202.02 148.75,201.47 149.15,200.91 149.54,200.34 149.94,199.76 150.34,199.16 150.73,198.56 151.13,197.94 151.52,197.31 151.92,196.67 152.32,196.01 152.71,195.33 153.11,194.64 153.5,193.93 153.9,193.2 154.3,192.45 154.69,191.69 155.09,190.92 155.49,190.13 155.88,189.33 156.28,188.52 156.67,187.71 157.07,186.9 157.47,186.1 157.86,185.3 158.26,184.52 158.65,183.76 159.05,183.02 159.45,182.31 159.84,181.62 160.24,180.97 160.63,180.35 161.03,179.78 161.43,179.25 161.82,178.75 162.22,178.3 162.62,177.88 163.01,177.5 163.41,177.16 163.8,176.86 164.2,176.59 164.6,176.34 164.99,176.12 165.39,175.91 165.78,175.72 166.18,175.55 166.58,175.38 166.97,175.22 167.37,175.07 167.76,174.91 168.16,174.75 168.56,174.58 168.95,174.41 169.35,174.23 169.74,174.04 170.14,173.85 170.54,173.65 170.93,173.45 171.33,173.24 171.73,173.03 172.12,172.82 172.52,172.62 172.91,172.42 173.31,172.22 173.71,172.04 174.1,171.86 174.5,171.71 174.89,171.56 175.29,171.43 175.69,171.31 176.08,171.2 176.48,171.11 176.87,171.03 177.27,170.96 177.67,170.89 178.06,170.83 178.46,170.77 178.86,170.7 179.25,170.63 179.65,170.55 180.04,170.45 180.44,170.34 180.84,170.2 181.23,170.03 181.63,169.84 182.02,169.61 182.42,169.34 182.82,169.04 183.21,168.69 183.61,168.31 184,167.88 184.4,167.42 184.8,166.92 185.19,166.37 185.59,165.8 185.98,165.18 186.38,164.55 186.78,163.88 187.17,163.2 187.57,162.5 187.97,161.78 188.36,161.06 188.76,160.33 189.15,159.6 189.55,158.88 189.95,158.16 190.34,157.45 190.74,156.75 191.13,156.07 191.53,155.4 191.93,154.74 192.32,154.1 192.72,153.47 193.11,152.85 193.51,152.25 193.91,151.65 194.3,151.06 194.7,150.48 195.09,149.89 195.49,149.3 195.89,148.71 196.28,148.11 196.68,147.5 197.08,146.88 197.47,146.25 197.87,145.61 198.26,144.95 198.66,144.28 199.06,143.59 199.45,142.9 199.85,142.19 200.24,141.47 200.64,140.74 201.04,140 201.43,139.25 201.83,138.5 202.22,137.75 202.62,136.99 203.02,136.23 203.41,135.47 203.81,134.71 204.21,133.94 204.6,133.17 205,132.39 205.39,131.6 205.79,130.81 206.19,130.02 206.58,129.21 206.98,128.39 207.37,127.56 207.77,126.72 208.17,125.87 208.56,125.01 208.96,124.14 209.35,123.26 209.75,122.39 210.15,121.51 210.54,120.63 210.94,119.75 211.33,118.88 211.73,118.02 212.13,117.17 212.52,116.34 212.92,115.53 213.32,114.73 213.71,113.95 214.11,113.2 214.5,112.46 214.9,111.74 215.3,111.05 215.69,110.37 216.09,109.72 216.48,109.08 216.88,108.46 217.28,107.85 217.67,107.25 218.07,106.67 218.46,106.1 218.86,105.54 219.26,104.98 219.65,104.44 220.05,103.89 220.45,103.35 220.84,102.82 221.24,102.28 221.63,101.75 222.03,101.21 222.43,100.67 222.82,100.13 223.22,99.57 223.61,99.01 224.01,98.44 224.41,97.86 224.8,97.27 225.2,96.66 225.59,96.04 225.99,95.41 226.39,94.76 226.78,94.09 227.18,93.42 227.57,92.73 227.97,92.04 228.37,91.33 228.76,90.63 229.16,89.92 229.56,89.21 229.95,88.51 230.35,87.82 230.74,87.13 231.14,86.46 231.54,85.81 231.93,85.18 232.33,84.57 232.72,83.99 233.12,83.43 233.52,82.89 233.91,82.39 234.31,81.91 234.7,81.46 235.1,81.03 235.5,80.63 235.89,80.25 236.29,79.89 236.68,79.55 237.08,79.22 237.48,78.9 237.87,78.58 238.27,78.27 238.67,77.96 239.06,77.65 239.46,77.33 239.85,76.99 240.25,76.64 240.65,76.28 241.04,75.9 241.44,75.49 241.83,75.07 242.23,74.61 242.63,74.13 243.02,73.62 243.42,73.08 243.81,72.51 244.21,71.92 244.61,71.29 245,70.64 245.4,69.96 245.8,69.26 246.19,68.53 246.59,67.79 246.98,67.03 247.38,66.27 247.78,65.49 248.17,64.72 248.57,63.95 248.96,63.19 249.36,62.45 249.76,61.72 250.15,61.01 250.55,60.33 250.94,59.69 251.34,59.08 251.74,58.51 252.13,57.97 252.53,57.48 252.92,57.02 253.32,56.61 253.72,56.24 254.11,55.91 254.51,55.61 254.91,55.35 255.3,55.12 255.7,54.92 256.09,54.75 256.49,54.6 256.89,54.48 257.28,54.38 257.68,54.29 258.07,54.22 258.47,54.16 258.87,54.12 259.26,54.08 259.66,54.05 260.05,54.02 260.45,54.01 260.85,53.99 261.24,53.98 261.64,53.97" stroke-dasharray="none" stroke="rgb(31,120,180)" stroke-width="0.75" opacity="1" stroke-opacity="1" fill="none"/>
          </g>
          <g id="Fig:densplot_01.xyplot.lines.group.10.panel.1.1.1">
            <polyline id="Fig:densplot_01.xyplot.lines.group.10.panel.1.1.1.1" points="59.08,53.99 59.48,54.01 59.87,54.03 60.27,54.05 60.67,54.09 61.06,54.14 61.46,54.19 61.86,54.27 62.25,54.36 62.65,54.47 63.04,54.61 63.44,54.79 63.84,55 64.23,55.25 64.63,55.56 65.03,55.92 65.42,56.34 65.82,56.84 66.22,57.42 66.61,58.09 67.01,58.86 67.41,59.72 67.8,60.69 68.2,61.77 68.6,62.99 68.99,64.33 69.39,65.8 69.79,67.39 70.18,69.1 70.58,70.93 70.98,72.88 71.37,74.95 71.77,77.13 72.17,79.4 72.56,81.75 72.96,84.16 73.36,86.64 73.75,89.16 74.15,91.72 74.55,94.29 74.94,96.86 75.34,99.41 75.74,101.94 76.13,104.44 76.53,106.89 76.93,109.27 77.32,111.58 77.72,113.81 78.12,115.97 78.51,118.04 78.91,120.02 79.3,121.89 79.7,123.66 80.1,125.33 80.49,126.91 80.89,128.4 81.29,129.8 81.68,131.1 82.08,132.32 82.48,133.45 82.87,134.5 83.27,135.49 83.67,136.42 84.06,137.29 84.46,138.11 84.86,138.88 85.25,139.6 85.65,140.3 86.05,140.97 86.44,141.62 86.84,142.25 87.24,142.86 87.63,143.46 88.03,144.05 88.43,144.63 88.82,145.21 89.22,145.78 89.62,146.35 90.01,146.91 90.41,147.47 90.81,148.03 91.2,148.58 91.6,149.14 92,149.69 92.39,150.24 92.79,150.79 93.19,151.34 93.58,151.89 93.98,152.44 94.38,152.99 94.77,153.54 95.17,154.1 95.56,154.65 95.96,155.21 96.36,155.77 96.75,156.33 97.15,156.89 97.55,157.46 97.94,158.02 98.34,158.59 98.74,159.15 99.13,159.72 99.53,160.29 99.93,160.85 100.32,161.43 100.72,162 101.12,162.58 101.51,163.17 101.91,163.76 102.31,164.37 102.7,164.98 103.1,165.62 103.5,166.26 103.89,166.93 104.29,167.62 104.69,168.34 105.08,169.07 105.48,169.83 105.88,170.62 106.27,171.43 106.67,172.27 107.07,173.14 107.46,174.03 107.86,174.95 108.26,175.9 108.65,176.87 109.05,177.87 109.45,178.89 109.84,179.94 110.24,181.01 110.64,182.09 111.03,183.2 111.43,184.33 111.82,185.48 112.22,186.64 112.62,187.82 113.01,189.01 113.41,190.21 113.81,191.42 114.2,192.63 114.6,193.85 115,195.06 115.39,196.27 115.79,197.47 116.19,198.66 116.58,199.83 116.98,200.99 117.38,202.12 117.77,203.22 118.17,204.29 118.57,205.33 118.96,206.34 119.36,207.32 119.76,208.26 120.15,209.15 120.55,210.01 120.95,210.83 121.34,211.61 121.74,212.35 122.14,213.06 122.53,213.73 122.93,214.37 123.33,214.96 123.72,215.53 124.12,216.07 124.52,216.57 124.91,217.05 125.31,217.5 125.71,217.92 126.1,218.32 126.5,218.69 126.9,219.04 127.29,219.38 127.69,219.69 128.08,219.98 128.48,220.26 128.88,220.51 129.27,220.76 129.67,220.98 130.07,221.2 130.46,221.39 130.86,221.57 131.26,221.73 131.65,221.87 132.05,221.99 132.45,222.09 132.84,222.16 133.24,222.21 133.64,222.22 134.03,222.2 134.43,222.14 134.83,222.05 135.22,221.91 135.62,221.74 136.02,221.52 136.41,221.25 136.81,220.93 137.21,220.58 137.6,220.18 138,219.74 138.4,219.26 138.79,218.74 139.19,218.18 139.59,217.6 139.98,216.98 140.38,216.35 140.78,215.69 141.17,215.01 141.57,214.31 141.97,213.6 142.36,212.88 142.76,212.15 143.16,211.41 143.55,210.66 143.95,209.9 144.34,209.13 144.74,208.35 145.14,207.56 145.53,206.76 145.93,205.95 146.33,205.13 146.72,204.29 147.12,203.45 147.52,202.59 147.91,201.72 148.31,200.84 148.71,199.95 149.1,199.05 149.5,198.14 149.9,197.23 150.29,196.31 150.69,195.38 151.09,194.46 151.48,193.54 151.88,192.61 152.28,191.7 152.67,190.78 153.07,189.88 153.47,188.98 153.86,188.09 154.26,187.21 154.66,186.35 155.05,185.49 155.45,184.66 155.85,183.84 156.24,183.03 156.64,182.25 157.04,181.48 157.43,180.73 157.83,180 158.23,179.29 158.62,178.6 159.02,177.93 159.42,177.29 159.81,176.66 160.21,176.05 160.61,175.46 161,174.89 161.4,174.34 161.79,173.81 162.19,173.3 162.59,172.81 162.98,172.33 163.38,171.87 163.78,171.44 164.17,171.02 164.57,170.61 164.97,170.23 165.36,169.86 165.76,169.51 166.16,169.19 166.55,168.88 166.95,168.6 167.35,168.33 167.74,168.08 168.14,167.86 168.54,167.65 168.93,167.47 169.33,167.31 169.73,167.17 170.12,167.04 170.52,166.94 170.92,166.85 171.31,166.77 171.71,166.71 172.11,166.65 172.5,166.6 172.9,166.56 173.3,166.51 173.69,166.47 174.09,166.42 174.49,166.36 174.88,166.29 175.28,166.21 175.68,166.11 176.07,166 176.47,165.88 176.87,165.74 177.26,165.58 177.66,165.41 178.05,165.22 178.45,165.02 178.85,164.81 179.24,164.59 179.64,164.36 180.04,164.12 180.43,163.87 180.83,163.62 181.23,163.37 181.62,163.11 182.02,162.84 182.42,162.57 182.81,162.3 183.21,162.01 183.61,161.72 184,161.42 184.4,161.12 184.8,160.8 185.19,160.47 185.59,160.13 185.99,159.77 186.38,159.41 186.78,159.03 187.18,158.64 187.57,158.23 187.97,157.82 188.37,157.4 188.76,156.97 189.16,156.54 189.56,156.1 189.95,155.66 190.35,155.22 190.75,154.77 191.14,154.32 191.54,153.88 191.94,153.43 192.33,152.98 192.73,152.53 193.13,152.07 193.52,151.61 193.92,151.14 194.31,150.66 194.71,150.17 195.11,149.68 195.5,149.16 195.9,148.63 196.3,148.09 196.69,147.52 197.09,146.93 197.49,146.33 197.88,145.71 198.28,145.07 198.68,144.41 199.07,143.72 199.47,143.03 199.87,142.32 200.26,141.6 200.66,140.87 201.06,140.13 201.45,139.39 201.85,138.64 202.25,137.9 202.64,137.16 203.04,136.43 203.44,135.7 203.83,134.99 204.23,134.28 204.63,133.59 205.02,132.91 205.42,132.23 205.82,131.57 206.21,130.92 206.61,130.27 207.01,129.63 207.4,128.99 207.8,128.34 208.2,127.69 208.59,127.03 208.99,126.37 209.39,125.68 209.78,124.98 210.18,124.26 210.57,123.52 210.97,122.75 211.37,121.97 211.76,121.16 212.16,120.33 212.56,119.47 212.95,118.6 213.35,117.71 213.75,116.81 214.14,115.9 214.54,114.99 214.94,114.07 215.33,113.15 215.73,112.24 216.13,111.35 216.52,110.46 216.92,109.59 217.32,108.75 217.71,107.92 218.11,107.13 218.51,106.35 218.9,105.61 219.3,104.89 219.7,104.2 220.09,103.53 220.49,102.89 220.89,102.28 221.28,101.68 221.68,101.11 222.08,100.55 222.47,100.01 222.87,99.48 223.27,98.96 223.66,98.46 224.06,97.95 224.46,97.46 224.85,96.96 225.25,96.47 225.65,95.97 226.04,95.47 226.44,94.97 226.83,94.46 227.23,93.95 227.63,93.43 228.02,92.9 228.42,92.36 228.82,91.82 229.21,91.26 229.61,90.7 230.01,90.13 230.4,89.56 230.8,88.97 231.2,88.39 231.59,87.8 231.99,87.2 232.39,86.61 232.78,86.02 233.18,85.44 233.58,84.86 233.97,84.29 234.37,83.73 234.77,83.18 235.16,82.64 235.56,82.12 235.96,81.61 236.35,81.12 236.75,80.65 237.15,80.19 237.54,79.75 237.94,79.31 238.34,78.89 238.73,78.48 239.13,78.08 239.53,77.68 239.92,77.28 240.32,76.88 240.72,76.47 241.11,76.06 241.51,75.63 241.91,75.18 242.3,74.72 242.7,74.23 243.09,73.71 243.49,73.17 243.89,72.61 244.28,72.01 244.68,71.38 245.08,70.72 245.47,70.04 245.87,69.33 246.27,68.6 246.66,67.84 247.06,67.08 247.46,66.3 247.85,65.51 248.25,64.73 248.65,63.95 249.04,63.18 249.44,62.42 249.84,61.68 250.23,60.97 250.63,60.29 251.03,59.65 251.42,59.04 251.82,58.46 252.22,57.92 252.61,57.43 253.01,56.98 253.41,56.58 253.8,56.21 254.2,55.88 254.6,55.58 254.99,55.32 255.39,55.1 255.79,54.9 256.18,54.74 256.58,54.6 256.98,54.47 257.37,54.37 257.77,54.29 258.17,54.22 258.56,54.16 258.96,54.11 259.35,54.08 259.75,54.05 260.15,54.02 260.54,54 260.94,53.99 261.34,53.98 261.73,53.97" stroke-dasharray="none" stroke="rgb(31,120,180)" stroke-width="0.75" opacity="1" stroke-opacity="1" fill="none"/>
          </g>
          <g id="Fig:densplot_01.xyplot.lines.group.11.panel.1.1.1">
            <polyline id="Fig:densplot_01.xyplot.lines.group.11.panel.1.1.1.1" points="59.11,53.99 59.5,54.01 59.9,54.03 60.3,54.06 60.69,54.1 61.09,54.14 61.49,54.2 61.88,54.27 62.28,54.37 62.68,54.48 63.07,54.62 63.47,54.8 63.87,55.01 64.26,55.26 64.66,55.56 65.05,55.91 65.45,56.32 65.85,56.81 66.24,57.38 66.64,58.03 67.04,58.77 67.43,59.6 67.83,60.54 68.23,61.58 68.62,62.76 69.02,64.05 69.42,65.45 69.81,66.97 70.21,68.61 70.6,70.36 71,72.24 71.4,74.23 71.79,76.32 72.19,78.5 72.59,80.76 72.98,83.1 73.38,85.49 73.78,87.94 74.17,90.43 74.57,92.94 74.97,95.46 75.36,97.98 75.76,100.49 76.15,102.97 76.55,105.41 76.95,107.81 77.34,110.15 77.74,112.43 78.14,114.65 78.53,116.79 78.93,118.86 79.33,120.84 79.72,122.73 80.12,124.54 80.51,126.28 80.91,127.93 81.31,129.5 81.7,130.99 82.1,132.4 82.5,133.73 82.89,135 83.29,136.2 83.69,137.33 84.08,138.41 84.48,139.43 84.88,140.38 85.27,141.28 85.67,142.14 86.06,142.95 86.46,143.71 86.86,144.44 87.25,145.12 87.65,145.77 88.05,146.37 88.44,146.95 88.84,147.5 89.24,148.02 89.63,148.51 90.03,148.98 90.43,149.42 90.82,149.85 91.22,150.26 91.61,150.66 92.01,151.04 92.41,151.42 92.8,151.79 93.2,152.16 93.6,152.53 93.99,152.9 94.39,153.28 94.79,153.67 95.18,154.07 95.58,154.48 95.98,154.92 96.37,155.37 96.77,155.85 97.16,156.36 97.56,156.9 97.96,157.46 98.35,158.07 98.75,158.7 99.15,159.38 99.54,160.08 99.94,160.82 100.34,161.58 100.73,162.38 101.13,163.21 101.53,164.06 101.92,164.92 102.32,165.81 102.71,166.7 103.11,167.6 103.51,168.51 103.9,169.41 104.3,170.31 104.7,171.2 105.09,172.09 105.49,172.96 105.89,173.83 106.28,174.68 106.68,175.53 107.08,176.36 107.47,177.19 107.87,178.02 108.26,178.85 108.66,179.68 109.06,180.52 109.45,181.38 109.85,182.24 110.25,183.13 110.64,184.03 111.04,184.95 111.44,185.9 111.83,186.87 112.23,187.86 112.63,188.88 113.02,189.91 113.42,190.96 113.81,192.02 114.21,193.09 114.61,194.17 115,195.25 115.4,196.33 115.8,197.41 116.19,198.47 116.59,199.52 116.99,200.55 117.38,201.56 117.78,202.55 118.18,203.52 118.57,204.47 118.97,205.39 119.36,206.3 119.76,207.17 120.16,208.02 120.55,208.85 120.95,209.66 121.35,210.44 121.74,211.21 122.14,211.95 122.54,212.67 122.93,213.37 123.33,214.04 123.73,214.69 124.12,215.32 124.52,215.91 124.91,216.47 125.31,217 125.71,217.48 126.1,217.93 126.5,218.33 126.9,218.69 127.29,218.99 127.69,219.25 128.09,219.45 128.48,219.6 128.88,219.69 129.28,219.73 129.67,219.71 130.07,219.64 130.46,219.53 130.86,219.36 131.26,219.14 131.65,218.88 132.05,218.59 132.45,218.26 132.84,217.91 133.24,217.53 133.64,217.13 134.03,216.72 134.43,216.3 134.83,215.87 135.22,215.44 135.62,215 136.01,214.57 136.41,214.14 136.81,213.72 137.2,213.3 137.6,212.89 138,212.48 138.39,212.07 138.79,211.67 139.19,211.27 139.58,210.87 139.98,210.47 140.38,210.07 140.77,209.66 141.17,209.24 141.56,208.82 141.96,208.39 142.36,207.95 142.75,207.5 143.15,207.03 143.55,206.56 143.94,206.08 144.34,205.58 144.74,205.08 145.13,204.56 145.53,204.04 145.93,203.5 146.32,202.95 146.72,202.4 147.11,201.83 147.51,201.25 147.91,200.66 148.3,200.06 148.7,199.46 149.1,198.84 149.49,198.21 149.89,197.58 150.29,196.94 150.68,196.29 151.08,195.64 151.48,194.99 151.87,194.34 152.27,193.68 152.66,193.03 153.06,192.38 153.46,191.73 153.85,191.09 154.25,190.45 154.65,189.81 155.04,189.18 155.44,188.55 155.84,187.92 156.23,187.3 156.63,186.67 157.03,186.05 157.42,185.42 157.82,184.79 158.21,184.16 158.61,183.53 159.01,182.89 159.4,182.25 159.8,181.6 160.2,180.95 160.59,180.31 160.99,179.66 161.39,179.02 161.78,178.38 162.18,177.75 162.57,177.13 162.97,176.52 163.37,175.93 163.76,175.36 164.16,174.8 164.56,174.26 164.95,173.75 165.35,173.26 165.75,172.79 166.14,172.35 166.54,171.94 166.94,171.55 167.33,171.19 167.73,170.85 168.12,170.53 168.52,170.23 168.92,169.96 169.31,169.7 169.71,169.45 170.11,169.22 170.5,169 170.9,168.78 171.3,168.57 171.69,168.36 172.09,168.16 172.49,167.95 172.88,167.74 173.28,167.53 173.67,167.32 174.07,167.11 174.47,166.89 174.86,166.67 175.26,166.46 175.66,166.24 176.05,166.02 176.45,165.81 176.85,165.6 177.24,165.4 177.64,165.2 178.04,165.02 178.43,164.84 178.83,164.67 179.22,164.5 179.62,164.34 180.02,164.2 180.41,164.05 180.81,163.91 181.21,163.77 181.6,163.63 182,163.49 182.4,163.35 182.79,163.2 183.19,163.04 183.59,162.88 183.98,162.71 184.38,162.53 184.77,162.34 185.17,162.14 185.57,161.92 185.96,161.7 186.36,161.47 186.76,161.23 187.15,160.98 187.55,160.72 187.95,160.46 188.34,160.18 188.74,159.89 189.14,159.59 189.53,159.28 189.93,158.95 190.32,158.61 190.72,158.26 191.12,157.88 191.51,157.49 191.91,157.07 192.31,156.63 192.7,156.17 193.1,155.68 193.5,155.16 193.89,154.61 194.29,154.04 194.69,153.44 195.08,152.81 195.48,152.15 195.87,151.45 196.27,150.73 196.67,149.99 197.06,149.21 197.46,148.42 197.86,147.6 198.25,146.76 198.65,145.89 199.05,145.01 199.44,144.11 199.84,143.19 200.24,142.27 200.63,141.33 201.03,140.38 201.42,139.42 201.82,138.45 202.22,137.49 202.61,136.52 203.01,135.55 203.41,134.59 203.8,133.63 204.2,132.68 204.6,131.74 204.99,130.8 205.39,129.89 205.79,128.98 206.18,128.1 206.58,127.22 206.97,126.37 207.37,125.54 207.77,124.72 208.16,123.92 208.56,123.14 208.96,122.38 209.35,121.63 209.75,120.9 210.15,120.18 210.54,119.48 210.94,118.79 211.34,118.11 211.73,117.44 212.13,116.78 212.52,116.13 212.92,115.48 213.32,114.83 213.71,114.19 214.11,113.55 214.51,112.91 214.9,112.27 215.3,111.62 215.7,110.98 216.09,110.33 216.49,109.68 216.89,109.03 217.28,108.37 217.68,107.72 218.07,107.06 218.47,106.41 218.87,105.75 219.26,105.1 219.66,104.46 220.06,103.82 220.45,103.19 220.85,102.56 221.25,101.95 221.64,101.34 222.04,100.75 222.44,100.16 222.83,99.58 223.23,99.01 223.62,98.45 224.02,97.89 224.42,97.34 224.81,96.79 225.21,96.25 225.61,95.7 226,95.16 226.4,94.62 226.8,94.07 227.19,93.52 227.59,92.97 227.99,92.41 228.38,91.85 228.78,91.29 229.17,90.73 229.57,90.16 229.97,89.6 230.36,89.03 230.76,88.47 231.16,87.9 231.55,87.34 231.95,86.78 232.35,86.23 232.74,85.68 233.14,85.13 233.54,84.6 233.93,84.06 234.33,83.54 234.72,83.02 235.12,82.51 235.52,82 235.91,81.5 236.31,81.01 236.71,80.53 237.1,80.05 237.5,79.58 237.9,79.11 238.29,78.65 238.69,78.19 239.08,77.73 239.48,77.28 239.88,76.82 240.27,76.36 240.67,75.9 241.07,75.43 241.46,74.95 241.86,74.47 242.26,73.97 242.65,73.45 243.05,72.93 243.45,72.38 243.84,71.81 244.24,71.23 244.63,70.62 245.03,69.99 245.43,69.33 245.82,68.66 246.22,67.97 246.62,67.27 247.01,66.55 247.41,65.82 247.81,65.08 248.2,64.35 248.6,63.61 249,62.89 249.39,62.17 249.79,61.48 250.18,60.8 250.58,60.15 250.98,59.53 251.37,58.95 251.77,58.39 252.17,57.88 252.56,57.39 252.96,56.96 253.36,56.56 253.75,56.2 254.15,55.87 254.55,55.58 254.94,55.33 255.34,55.1 255.73,54.91 256.13,54.74 256.53,54.6 256.92,54.48 257.32,54.38 257.72,54.29 258.11,54.22 258.51,54.16 258.91,54.12 259.3,54.08 259.7,54.05 260.1,54.03 260.49,54.01 260.89,53.99 261.28,53.98 261.68,53.97" stroke-dasharray="none" stroke="rgb(31,120,180)" stroke-width="0.75" opacity="1" stroke-opacity="1" fill="none"/>
          </g>
          <g id="Fig:densplot_01.xyplot.lines.group.12.panel.1.1.1">
            <polyline id="Fig:densplot_01.xyplot.lines.group.12.panel.1.1.1.1" points="59,54 59.4,54.01 59.79,54.04 60.19,54.07 60.59,54.1 60.98,54.15 61.38,54.22 61.78,54.3 62.18,54.39 62.57,54.51 62.97,54.66 63.37,54.84 63.76,55.07 64.16,55.34 64.56,55.65 64.95,56.03 65.35,56.47 65.75,56.97 66.14,57.57 66.54,58.26 66.94,59.04 67.33,59.92 67.73,60.9 68.13,61.99 68.53,63.2 68.92,64.54 69.32,66.01 69.72,67.59 70.11,69.28 70.51,71.09 70.91,73.01 71.3,75.03 71.7,77.16 72.1,79.38 72.49,81.67 72.89,84.02 73.29,86.43 73.68,88.88 74.08,91.36 74.48,93.87 74.88,96.37 75.27,98.87 75.67,101.35 76.07,103.8 76.46,106.22 76.86,108.59 77.26,110.91 77.65,113.16 78.05,115.35 78.45,117.47 78.84,119.52 79.24,121.5 79.64,123.38 80.03,125.18 80.43,126.9 80.83,128.54 81.23,130.1 81.62,131.58 82.02,132.98 82.42,134.28 82.81,135.51 83.21,136.66 83.61,137.74 84,138.76 84.4,139.71 84.8,140.59 85.19,141.41 85.59,142.17 85.99,142.89 86.38,143.56 86.78,144.19 87.18,144.79 87.58,145.34 87.97,145.87 88.37,146.38 88.77,146.86 89.16,147.33 89.56,147.78 89.96,148.22 90.35,148.66 90.75,149.09 91.15,149.52 91.54,149.95 91.94,150.39 92.34,150.83 92.73,151.28 93.13,151.74 93.53,152.21 93.93,152.69 94.32,153.19 94.72,153.7 95.12,154.23 95.51,154.77 95.91,155.32 96.31,155.9 96.7,156.49 97.1,157.09 97.5,157.71 97.89,158.34 98.29,158.98 98.69,159.64 99.08,160.31 99.48,160.99 99.88,161.68 100.28,162.37 100.67,163.08 101.07,163.79 101.47,164.52 101.86,165.25 102.26,165.99 102.66,166.74 103.05,167.5 103.45,168.27 103.85,169.05 104.24,169.85 104.64,170.66 105.04,171.49 105.43,172.33 105.83,173.19 106.23,174.06 106.63,174.96 107.02,175.87 107.42,176.81 107.82,177.76 108.21,178.73 108.61,179.72 109.01,180.73 109.4,181.75 109.8,182.79 110.2,183.85 110.59,184.92 110.99,185.99 111.39,187.08 111.78,188.18 112.18,189.28 112.58,190.39 112.98,191.5 113.37,192.61 113.77,193.71 114.17,194.82 114.56,195.92 114.96,197 115.36,198.07 115.75,199.13 116.15,200.17 116.55,201.19 116.94,202.19 117.34,203.16 117.74,204.1 118.13,205 118.53,205.88 118.93,206.72 119.33,207.53 119.72,208.31 120.12,209.05 120.52,209.76 120.91,210.44 121.31,211.1 121.71,211.73 122.1,212.33 122.5,212.92 122.9,213.49 123.29,214.03 123.69,214.57 124.09,215.09 124.48,215.6 124.88,216.11 125.28,216.6 125.68,217.07 126.07,217.53 126.47,217.98 126.87,218.42 127.26,218.83 127.66,219.22 128.06,219.59 128.45,219.92 128.85,220.22 129.25,220.49 129.64,220.71 130.04,220.9 130.44,221.04 130.83,221.13 131.23,221.17 131.63,221.15 132.03,221.08 132.42,220.96 132.82,220.79 133.22,220.56 133.61,220.28 134.01,219.95 134.41,219.57 134.8,219.15 135.2,218.69 135.6,218.19 135.99,217.66 136.39,217.1 136.79,216.51 137.18,215.91 137.58,215.28 137.98,214.65 138.38,214 138.77,213.35 139.17,212.69 139.57,212.03 139.96,211.37 140.36,210.71 140.76,210.06 141.15,209.4 141.55,208.75 141.95,208.1 142.34,207.46 142.74,206.81 143.14,206.17 143.53,205.52 143.93,204.87 144.33,204.22 144.73,203.56 145.12,202.9 145.52,202.23 145.92,201.55 146.31,200.85 146.71,200.15 147.11,199.43 147.5,198.69 147.9,197.93 148.3,197.16 148.69,196.38 149.09,195.57 149.49,194.75 149.88,193.91 150.28,193.06 150.68,192.19 151.08,191.3 151.47,190.41 151.87,189.5 152.27,188.58 152.66,187.66 153.06,186.72 153.46,185.78 153.85,184.84 154.25,183.9 154.65,182.97 155.04,182.03 155.44,181.1 155.84,180.18 156.23,179.28 156.63,178.39 157.03,177.51 157.43,176.66 157.82,175.83 158.22,175.03 158.62,174.26 159.01,173.52 159.41,172.81 159.81,172.15 160.2,171.52 160.6,170.94 161,170.4 161.39,169.9 161.79,169.45 162.19,169.03 162.58,168.66 162.98,168.33 163.38,168.03 163.78,167.78 164.17,167.55 164.57,167.35 164.97,167.18 165.36,167.02 165.76,166.89 166.16,166.78 166.55,166.68 166.95,166.59 167.35,166.51 167.74,166.44 168.14,166.37 168.54,166.31 168.93,166.26 169.33,166.22 169.73,166.18 170.13,166.14 170.52,166.11 170.92,166.09 171.32,166.07 171.71,166.05 172.11,166.04 172.51,166.04 172.9,166.04 173.3,166.04 173.7,166.05 174.09,166.05 174.49,166.06 174.89,166.06 175.28,166.07 175.68,166.07 176.08,166.07 176.48,166.06 176.87,166.05 177.27,166.03 177.67,166 178.06,165.97 178.46,165.92 178.86,165.86 179.25,165.79 179.65,165.7 180.05,165.6 180.44,165.47 180.84,165.34 181.24,165.18 181.63,165 182.03,164.8 182.43,164.58 182.83,164.33 183.22,164.06 183.62,163.78 184.02,163.47 184.41,163.15 184.81,162.8 185.21,162.44 185.6,162.07 186,161.68 186.4,161.29 186.79,160.89 187.19,160.49 187.59,160.09 187.98,159.68 188.38,159.28 188.78,158.89 189.18,158.49 189.57,158.11 189.97,157.73 190.37,157.36 190.76,157 191.16,156.64 191.56,156.29 191.95,155.94 192.35,155.6 192.75,155.25 193.14,154.91 193.54,154.56 193.94,154.2 194.33,153.84 194.73,153.46 195.13,153.07 195.53,152.67 195.92,152.24 196.32,151.8 196.72,151.33 197.11,150.83 197.51,150.31 197.91,149.77 198.3,149.19 198.7,148.58 199.1,147.95 199.49,147.28 199.89,146.59 200.29,145.87 200.68,145.12 201.08,144.34 201.48,143.55 201.88,142.73 202.27,141.89 202.67,141.04 203.07,140.17 203.46,139.29 203.86,138.4 204.26,137.5 204.65,136.6 205.05,135.7 205.45,134.79 205.84,133.88 206.24,132.97 206.64,132.07 207.03,131.16 207.43,130.27 207.83,129.37 208.23,128.48 208.62,127.6 209.02,126.72 209.42,125.86 209.81,125 210.21,124.15 210.61,123.3 211,122.47 211.4,121.65 211.8,120.84 212.19,120.04 212.59,119.25 212.99,118.47 213.38,117.69 213.78,116.92 214.18,116.16 214.58,115.4 214.97,114.64 215.37,113.88 215.77,113.13 216.16,112.37 216.56,111.61 216.96,110.85 217.35,110.08 217.75,109.31 218.15,108.54 218.54,107.77 218.94,107 219.34,106.23 219.73,105.47 220.13,104.71 220.53,103.96 220.93,103.22 221.32,102.49 221.72,101.77 222.12,101.06 222.51,100.37 222.91,99.69 223.31,99.03 223.7,98.38 224.1,97.75 224.5,97.13 224.89,96.52 225.29,95.93 225.69,95.34 226.08,94.77 226.48,94.2 226.88,93.64 227.28,93.08 227.67,92.53 228.07,91.98 228.47,91.44 228.86,90.89 229.26,90.35 229.66,89.81 230.05,89.27 230.45,88.73 230.85,88.2 231.24,87.66 231.64,87.13 232.04,86.6 232.43,86.08 232.83,85.55 233.23,85.04 233.63,84.52 234.02,84.02 234.42,83.52 234.82,83.03 235.21,82.54 235.61,82.07 236.01,81.6 236.4,81.14 236.8,80.69 237.2,80.25 237.59,79.81 237.99,79.38 238.39,78.96 238.78,78.54 239.18,78.13 239.58,77.71 239.98,77.3 240.37,76.88 240.77,76.46 241.17,76.03 241.56,75.59 241.96,75.13 242.36,74.66 242.75,74.16 243.15,73.65 243.55,73.12 243.94,72.56 244.34,71.98 244.74,71.36 245.13,70.72 245.53,70.06 245.93,69.38 246.33,68.67 246.72,67.94 247.12,67.2 247.52,66.44 247.91,65.68 248.31,64.91 248.71,64.15 249.1,63.39 249.5,62.64 249.9,61.91 250.29,61.21 250.69,60.53 251.09,59.87 251.48,59.26 251.88,58.67 252.28,58.12 252.68,57.62 253.07,57.16 253.47,56.74 253.87,56.36 254.26,56.01 254.66,55.7 255.06,55.43 255.45,55.19 255.85,54.99 256.25,54.81 256.64,54.66 257.04,54.52 257.44,54.41 257.83,54.32 258.23,54.25 258.63,54.19 259.03,54.13 259.42,54.09 259.82,54.06 260.22,54.03 260.61,54.01 261.01,54 261.41,53.98 261.8,53.97" stroke-dasharray="none" stroke="rgb(31,120,180)" stroke-width="0.75" opacity="1" stroke-opacity="1" fill="none"/>
          </g>
        </g>
        <g id="Fig:densplot_01.panel.1.1.off.vp.2">
          <g id="Fig:densplot_01.border.panel.1.1.1">
            <rect id="Fig:densplot_01.border.panel.1.1.1.1" x="44.8" y="42.19" width="231.2" height="191.81" transform="" stroke="rgb(0,0,0)" stroke-dasharray="none" stroke-width="0.75" opacity="1" fill="none" stroke-opacity="1" fill-opacity="0"/>
          </g>
        </g>
        <g id="Fig:densplot_01..1"/>
      </g>
    </g>
  </g>
</svg>